<svg width="220" height="320" viewBox="0 0 220 320" fill="none" xmlns="http://www.w3.org/2000/svg">
<path d="M110.672 318.058C104.238 313.356 97.433 309.183 90.3242 305.581C83.0459 301.89 75.3517 299.218 67.8967 295.901C55.1068 290.253 43.4733 282.286 33.5847 272.402C27.9577 266.754 23.0032 260.474 18.8202 253.687C18.7398 253.559 18.6243 253.456 18.4874 253.392C18.3505 253.327 18.1979 253.304 18.0479 253.323C17.8979 253.343 17.7567 253.405 17.6411 253.503C17.5255 253.601 17.4403 253.729 17.3957 253.874C16.2416 258.345 14.734 262.712 13.5798 267.183L15.0043 266.996C5.26376 245.58 0.806569 222.139 2.00735 198.642L0.666069 199.193C14.2973 213.667 29.7792 226.164 45.9474 237.664L46.3425 236.209C40.863 236.281 35.4251 237.04 29.9456 237.103C29.7936 237.11 29.6468 237.161 29.5225 237.248C29.3982 237.336 29.3014 237.457 29.2436 237.598C29.1858 237.739 29.1692 237.893 29.196 238.043C29.2227 238.193 29.2916 238.332 29.3945 238.444C38.3894 249.805 51.1686 257.555 65.4012 260.279C67.4082 260.682 69.4405 260.946 71.4838 261.069C73.5942 261.097 75.7038 260.968 77.7951 260.684C79.4176 260.365 80.9169 259.593 82.1205 258.459C83.5312 257.319 84.7923 256.006 85.874 254.55C90.8441 247.906 91.7071 239.224 92.5077 231.166C93.4846 221.027 93.9531 210.845 93.9113 200.659C93.9113 200.452 93.8292 200.254 93.6829 200.108C93.5367 199.962 93.3383 199.879 93.1315 199.879C92.9247 199.879 92.7264 199.962 92.5801 200.108C92.4339 200.254 92.3517 200.452 92.3517 200.659C92.3517 209.144 92.0328 217.621 91.3951 226.092C90.7609 234.129 90.4178 242.936 86.6642 250.245C85.0229 253.691 82.4099 256.583 79.1468 258.563C77.6496 259.395 75.5805 259.385 73.948 259.489C71.7228 259.583 69.494 259.426 67.304 259.021C60.4776 257.888 53.9012 255.573 47.871 252.179C41.1457 248.414 35.239 243.345 30.4967 237.269L29.9456 238.6C35.4251 238.538 40.863 237.779 46.3425 237.706C46.5099 237.697 46.6703 237.636 46.8004 237.53C46.9306 237.425 47.0238 237.281 47.0666 237.118C47.1094 236.956 47.0996 236.785 47.0386 236.629C46.9776 236.473 46.8686 236.34 46.7272 236.25C30.6942 224.813 15.3058 212.336 1.77861 197.998C1.66777 197.893 1.52924 197.823 1.37965 197.796C1.23005 197.769 1.07574 197.785 0.935236 197.843C0.794729 197.902 0.673995 197.999 0.58752 198.124C0.501045 198.249 0.452504 198.397 0.44772 198.549C-0.472881 217.062 2.0659 235.584 7.93396 253.167C9.58817 258.114 11.4969 262.973 13.6526 267.724C13.733 267.852 13.8486 267.954 13.9855 268.018C14.1224 268.083 14.2749 268.107 14.4249 268.087C14.5749 268.067 14.7161 268.005 14.8317 267.907C14.9473 267.81 15.0325 267.681 15.0771 267.536C16.2416 263.065 17.7389 258.698 18.9034 254.228L17.4789 254.415C24.8567 266.346 34.4958 276.72 45.8538 284.952C51.5895 289.127 57.698 292.764 64.1016 295.818C71.3798 299.311 79.0636 301.848 86.3523 305.321C94.6165 309.271 102.494 313.985 109.882 319.399C110.693 319.992 111.473 318.64 110.672 318.058Z" fill="#565A6A"/>
<path d="M94.6391 55.0626C94.6391 59.9494 94.5768 64.8259 94.6391 69.7023C94.6391 70.3678 94.4 71.7818 95.2318 72.073C95.3986 72.1171 95.5754 72.1055 95.735 72.0398C95.8945 71.974 96.0282 71.8579 96.1156 71.709C96.2038 71.4949 96.2463 71.2647 96.2404 71.0332C96.2404 69.9934 94.7223 69.9934 94.6807 71.0332C94.6807 71.3867 94.6807 71.2204 94.7743 70.9292L95.6477 70.5653L96.1988 71.1164C96.1988 71.3451 96.1988 71.2723 96.1988 71.1164C96.1988 70.8876 96.1988 70.8772 96.1988 70.7629C96.1988 70.347 96.1988 69.9311 96.1988 69.5256C96.1988 68.2363 96.1988 66.947 96.1988 65.6577V57.0173C96.1988 56.3519 96.1988 55.6864 96.1988 55.021C96.1988 54.8141 96.1166 54.6158 95.9704 54.4696C95.8241 54.3233 95.6258 54.2412 95.419 54.2412C95.2121 54.2412 95.0138 54.3233 94.8675 54.4696C94.7213 54.6158 94.6391 54.8141 94.6391 55.021V55.0626Z" fill="#565A6A"/>
<path d="M94.6393 77.7395C94.5907 80.7964 94.5318 83.8568 94.4625 86.9206C94.3169 94.3306 94.1679 101.747 94.0154 109.171C93.8629 118.314 93.6792 127.474 93.4643 136.652C93.291 144.845 93.1108 153.039 92.9237 161.232C92.8197 165.921 92.7365 170.59 92.5597 175.321V175.944C92.5078 176.984 94.0674 176.984 94.1194 175.944C94.3273 171.889 94.3585 167.814 94.4625 163.748C94.6358 155.804 94.8091 147.864 94.9824 139.927L96.0117 89.208C96.0117 86.6606 96.1053 84.1028 96.1573 81.545C96.1573 80.3701 96.3237 79.1328 96.2301 77.9579V77.7915C96.2301 77.5847 96.1479 77.3863 96.0017 77.2401C95.8554 77.0939 95.6571 77.0117 95.4503 77.0117C95.2434 77.0117 95.0451 77.0939 94.8988 77.2401C94.7526 77.3863 94.6704 77.5847 94.6704 77.7915L94.6393 77.7395Z" fill="#565A6A"/>
<path d="M81.7045 30.0564C81.7006 25.177 82.9686 20.3809 85.3833 16.1409C87.7981 11.9009 91.2763 8.3635 95.4749 5.87751C99.6735 3.39153 104.448 2.0428 109.326 1.96431C114.205 1.88583 119.02 3.08031 123.297 5.42996C127.573 7.77961 131.163 11.2033 133.713 15.3634C136.263 19.5235 137.684 24.2764 137.837 29.1534C137.991 34.0304 136.87 38.8631 134.586 43.1749C132.302 47.4868 128.933 51.1289 124.813 53.7421C123.971 54.2827 124.75 55.6344 125.603 55.0937C129.102 52.8806 132.098 49.9583 134.398 46.5154C136.698 43.0726 138.25 39.1858 138.954 35.106C139.659 31.0261 139.5 26.8438 138.488 22.8292C137.476 18.8145 135.633 15.0567 133.079 11.7983C129.277 6.94972 124.058 3.40719 118.149 1.66398C112.239 -0.0792423 105.933 0.0636047 100.108 2.07263C94.2839 4.08165 89.2307 7.85686 85.6524 12.8726C82.0742 17.8884 80.149 23.8951 80.1449 30.0564C80.1449 30.2632 80.227 30.4616 80.3733 30.6078C80.5195 30.7541 80.7179 30.8362 80.9247 30.8362C81.1315 30.8362 81.3299 30.7541 81.4761 30.6078C81.6223 30.4616 81.7045 30.2632 81.7045 30.0564Z" fill="#565A6A"/>
<path d="M84.855 42.9702C83.8278 40.9921 83.0423 38.8975 82.5156 36.7317C82.4883 36.6327 82.4417 36.54 82.3786 36.459C82.3155 36.378 82.237 36.3102 82.1477 36.2595C82.0584 36.2088 81.96 36.1762 81.8581 36.1636C81.7562 36.1509 81.6528 36.1585 81.5538 36.1858C81.4548 36.2131 81.3622 36.2596 81.2811 36.3228C81.2001 36.3859 81.1324 36.4643 81.0817 36.5536C81.031 36.6429 80.9984 36.7414 80.9857 36.8433C80.9731 36.9452 80.9806 37.0486 81.0079 37.1476C81.5749 39.4396 82.4126 41.6559 83.5033 43.75C83.609 43.9196 83.7751 44.0429 83.968 44.0949C84.1609 44.147 84.3664 44.1241 84.5431 44.0307C84.709 43.9218 84.8292 43.7558 84.881 43.5642C84.9327 43.3726 84.9124 43.1686 84.8238 42.991L84.855 42.9702Z" fill="#565A6A"/>
<path d="M95.4918 54.2205C93.1883 52.8456 91.0884 51.1552 89.2533 49.1984C88.567 48.4602 87.4649 49.5727 88.1511 50.3006C90.0791 52.3477 92.2839 54.1151 94.7016 55.5513C94.8785 55.6416 95.0832 55.6609 95.2739 55.6054C95.4646 55.5498 95.627 55.4236 95.7278 55.2525C95.8286 55.0814 95.8603 54.8782 95.8165 54.6845C95.7726 54.4908 95.6565 54.3211 95.4918 54.2101V54.2205Z" fill="#565A6A"/>
<path d="M96.386 25.2737C97.1933 22.992 98.5678 20.9533 100.38 19.3493C102.193 17.7454 104.383 16.6289 106.746 16.1049C109.109 15.581 111.566 15.6668 113.887 16.3543C116.207 17.0418 118.315 18.3084 120.011 20.0349C121.707 21.7614 122.936 23.8911 123.582 26.2235C124.228 28.5559 124.27 31.0143 123.704 33.3675C123.139 35.7206 121.983 37.8911 120.347 39.6747C118.711 41.4583 116.649 42.7964 114.353 43.563C111.519 44.4784 108.472 44.4974 105.627 43.6172C102.781 42.7371 100.277 41.0007 98.4551 38.6449C97.8312 37.8547 96.7395 38.9673 97.3529 39.7471C99.0321 41.9017 101.241 43.5847 103.764 44.632C106.287 45.6793 109.038 46.0552 111.749 45.7232C114.461 45.3911 117.04 44.3624 119.235 42.7373C121.431 41.1121 123.168 38.946 124.278 36.4498C125.388 33.9537 125.832 31.2126 125.567 28.4938C125.303 25.775 124.338 23.1711 122.768 20.9357C121.198 18.7004 119.076 16.9098 116.608 15.7386C114.14 14.5673 111.411 14.0552 108.686 14.2523C105.61 14.5041 102.671 15.6388 100.223 17.5201C97.7758 19.4014 95.9234 21.9493 94.8887 24.8578C94.5456 25.804 96.0532 26.2095 96.386 25.2737Z" fill="#565A6A"/>
<path d="M71.1304 67.3422L36.6001 67.914L31.7549 68.0284C31.5489 68.0311 31.3521 68.1141 31.2064 68.2598C31.0608 68.4055 30.9777 68.6022 30.975 68.8082L31.2038 79.9856C31.2065 80.1916 31.2895 80.3884 31.4352 80.534C31.5808 80.6797 31.7776 80.7627 31.9836 80.7654H36.7561C37.2656 80.7654 37.7958 80.7654 38.3053 80.7654C37.8686 80.7654 38.3885 80.7654 38.5029 80.7654L45.3653 81.8052L74.5304 86.3281C75.5702 86.4737 75.9341 84.9764 74.9463 84.8205L39.1891 79.3098C36.7941 79.0828 34.3854 79.0376 31.9836 79.1746L32.7634 79.9544L32.5347 68.777L31.7549 69.5569L71.1304 68.9018C71.3372 68.9018 71.5356 68.8196 71.6818 68.6734C71.8281 68.5272 71.9102 68.3288 71.9102 68.122C71.9102 67.9152 71.8281 67.7168 71.6818 67.5706C71.5356 67.4243 71.3372 67.3422 71.1304 67.3422Z" fill="#565A6A"/>
<path d="M90.3034 88.6882L95.1382 89.2705C95.3451 89.2705 95.5434 89.1883 95.6896 89.0421C95.8359 88.8958 95.9181 88.6975 95.9181 88.4906C95.9181 88.2838 95.8359 88.0855 95.6896 87.9392C95.5434 87.793 95.3451 87.7108 95.1382 87.7108L90.896 87.2013L90.3034 87.1286C90.2006 87.1272 90.0985 87.1464 90.0033 87.1851C89.9081 87.2238 89.8215 87.2812 89.7488 87.3538C89.6761 87.4265 89.6188 87.5131 89.5801 87.6083C89.5414 87.7036 89.5222 87.8056 89.5236 87.9084C89.5288 88.1135 89.6127 88.3088 89.7578 88.454C89.9029 88.5991 90.0982 88.6829 90.3034 88.6882Z" fill="#565A6A"/>
<path d="M153.053 258.917C149.817 259.623 146.477 259.718 143.206 259.198C140.301 258.512 137.748 256.784 136.032 254.342C132.039 249.247 130.438 242.666 129.627 236.365C128.753 229.544 128.483 222.599 128.15 215.726C127.776 208.208 127.662 200.68 127.651 193.153C127.651 184.595 127.745 176.038 127.745 167.481C127.745 167.274 127.663 167.076 127.517 166.93C127.37 166.783 127.172 166.701 126.965 166.701C126.758 166.701 126.56 166.783 126.414 166.93C126.267 167.076 126.185 167.274 126.185 167.481C126.185 183.566 125.79 199.662 126.591 215.726C126.944 223.004 127.204 230.282 128.213 237.477C129.107 243.799 130.843 250.277 134.857 255.372C136.734 257.976 139.457 259.847 142.561 260.664C146.177 261.302 149.884 261.221 153.468 260.425C154.456 260.227 154.04 258.72 153.053 258.917Z" fill="#565A6A"/>
<path d="M156.962 295.392C171.587 288.303 184.506 278.134 194.83 265.582C197.712 262.029 200.358 258.292 202.753 254.394L201.328 254.207C202.483 258.678 203.99 263.045 205.144 267.516C205.189 267.66 205.274 267.789 205.39 267.887C205.505 267.984 205.646 268.047 205.796 268.066C205.947 268.086 206.099 268.062 206.236 267.998C206.373 267.934 206.488 267.831 206.569 267.703C216.445 246.045 220.977 222.333 219.784 198.559C219.779 198.407 219.731 198.26 219.644 198.135C219.558 198.01 219.437 197.912 219.297 197.854C219.156 197.796 219.002 197.779 218.852 197.807C218.703 197.834 218.564 197.904 218.453 198.008C204.936 212.388 189.538 224.803 173.494 236.261C173.352 236.351 173.243 236.485 173.182 236.642C173.122 236.799 173.113 236.971 173.157 237.134C173.201 237.296 173.296 237.44 173.427 237.545C173.559 237.65 173.721 237.71 173.889 237.716C179.369 237.789 184.807 238.548 190.286 238.611L189.735 237.28C182.28 246.856 171.519 254.581 159.728 257.659C159.528 257.713 159.357 257.844 159.254 258.023C159.151 258.203 159.123 258.416 159.177 258.616C159.23 258.815 159.361 258.986 159.541 259.089C159.72 259.193 159.933 259.22 160.133 259.167C172.163 256.047 183.226 248.156 190.837 238.371C190.94 238.259 191.009 238.12 191.036 237.971C191.063 237.821 191.046 237.666 190.988 237.526C190.93 237.385 190.834 237.264 190.709 237.176C190.585 237.088 190.438 237.038 190.286 237.03C184.807 236.968 179.369 236.209 173.889 236.136L174.284 237.592C190.484 226.071 205.935 213.594 219.597 199.121L218.266 198.57C219.172 216.783 216.705 235.008 210.988 252.325C209.346 257.275 207.44 262.135 205.279 266.882L206.704 267.069C205.55 262.598 204.042 258.231 202.878 253.76C202.833 253.615 202.748 253.487 202.632 253.389C202.517 253.291 202.375 253.229 202.225 253.209C202.075 253.19 201.923 253.213 201.786 253.278C201.649 253.342 201.534 253.445 201.453 253.573C192.979 267.231 181.531 278.799 167.963 287.417C164.165 289.855 160.228 292.07 156.172 294.05C155.278 294.487 156.057 295.839 156.962 295.392Z" fill="#565A6A"/>
<path d="M110.298 319.4C120.676 311.84 131.976 305.635 143.924 300.934C144.849 300.57 144.443 299.052 143.508 299.426C131.43 304.156 120.004 310.407 109.508 318.027C108.707 318.609 109.508 319.961 110.298 319.368V319.4Z" fill="#565A6A"/>
<path d="M123.939 55.0623C123.939 59.762 124.002 64.4201 123.939 69.1614C123.939 69.6709 123.939 70.2012 123.939 70.6795C123.939 70.825 123.939 70.9706 123.939 71.1058C123.867 71.3969 123.939 71.2409 123.939 71.1058L124.48 70.5547L125.364 70.9186C125.478 71.1993 125.468 71.3865 125.447 71.0226C125.447 69.9828 123.846 69.9828 123.887 71.0226C123.887 71.2537 123.929 71.4829 124.012 71.6984C124.1 71.8473 124.233 71.9634 124.393 72.0291C124.552 72.0948 124.729 72.1065 124.896 72.0623C125.676 71.8336 125.489 70.7107 125.489 70.0868C125.489 68.8391 125.489 67.581 125.489 66.3229C125.489 63.2729 125.489 60.2334 125.489 57.2042C125.489 56.4868 125.489 55.7694 125.489 55.0519C125.489 54.8451 125.407 54.6468 125.26 54.5005C125.114 54.3543 124.916 54.2721 124.709 54.2721C124.502 54.2721 124.304 54.3543 124.157 54.5005C124.011 54.6468 123.929 54.8451 123.929 55.0519L123.939 55.0623Z" fill="#565A6A"/>
<path d="M123.939 77.7395L125.395 145.313C125.395 145.52 125.477 145.718 125.624 145.865C125.77 146.011 125.968 146.093 126.175 146.093C126.382 146.093 126.58 146.011 126.726 145.865C126.873 145.718 126.955 145.52 126.955 145.313L125.499 77.7291C125.499 77.5222 125.417 77.3239 125.271 77.1776C125.124 77.0314 124.926 76.9492 124.719 76.9492C124.512 76.9492 124.314 77.0314 124.168 77.1776C124.022 77.3239 123.939 77.5222 123.939 77.7291V77.7395Z" fill="#565A6A"/>
<path d="M125.811 68.5168L188.425 69.5565L187.645 68.7767L187.416 79.9541L188.196 79.1742C185.455 79.0647 182.71 79.1585 179.982 79.455L133.391 86.4733L124.906 87.7834C123.867 87.929 124.345 89.4366 125.322 89.2911L179.213 81.1914C180.149 81.0458 181.084 80.8483 182.02 80.7651H181.864H182.374C183.091 80.7651 183.798 80.7651 184.516 80.7651H188.196C188.402 80.7624 188.599 80.6794 188.745 80.5337C188.89 80.388 188.973 80.1912 188.976 79.9853L189.205 68.8079C189.204 68.7041 189.182 68.6016 189.141 68.5063C189.1 68.4109 189.04 68.3246 188.966 68.2521C188.892 68.1797 188.804 68.1227 188.707 68.0842C188.611 68.0458 188.508 68.0267 188.404 68.0281L133.526 67.1235L125.811 66.9883C125.604 66.9883 125.406 67.0705 125.26 67.2167C125.113 67.363 125.031 67.5613 125.031 67.7681C125.031 67.9749 125.113 68.1733 125.26 68.3195C125.406 68.4658 125.604 68.5479 125.811 68.5479V68.5168Z" fill="#565A6A"/>
<path d="M109.123 63.5365V72.8007L109.414 145.251V152.924C109.414 154.12 109.321 155.378 109.414 156.563V156.73C109.414 156.937 109.496 157.135 109.643 157.281C109.789 157.427 109.987 157.51 110.194 157.51C110.401 157.51 110.599 157.427 110.745 157.281C110.892 157.135 110.974 156.937 110.974 156.73V147.466L110.683 75.0154V67.342C110.683 66.1463 110.776 64.8882 110.683 63.6925C110.677 63.6406 110.677 63.5884 110.683 63.5365C110.683 63.3297 110.6 63.1313 110.454 62.9851C110.308 62.8388 110.11 62.7567 109.903 62.7567C109.696 62.7567 109.498 62.8388 109.351 62.9851C109.205 63.1313 109.123 63.3297 109.123 63.5365Z" fill="#565A6A"/>
<path d="M109.123 188.754V198.019L109.414 270.469V278.142C109.414 279.338 109.321 280.596 109.414 281.792V281.948C109.414 282.154 109.496 282.353 109.643 282.499C109.789 282.645 109.987 282.727 110.194 282.727C110.401 282.727 110.599 282.645 110.745 282.499C110.892 282.353 110.974 282.154 110.974 281.948V272.683L110.683 200.244V192.56C110.683 191.364 110.776 190.117 110.683 188.921C110.677 188.865 110.677 188.81 110.683 188.754C110.683 188.548 110.6 188.349 110.454 188.203C110.308 188.057 110.11 187.975 109.903 187.975C109.696 187.975 109.498 188.057 109.351 188.203C109.205 188.349 109.123 188.548 109.123 188.754Z" fill="#565A6A"/>
<path d="M194.643 238.163C196.66 238.08 198.677 237.945 200.684 237.737C201.588 237.643 202.493 237.529 203.387 237.415C204.001 237.332 204.843 237.415 205.29 236.916C205.825 236.184 206.265 235.387 206.6 234.545C207.006 233.776 207.401 232.996 207.796 232.216C208.662 230.511 209.487 228.778 210.27 227.017C213.331 220.296 215.856 213.342 217.819 206.222C217.873 206.022 217.845 205.809 217.742 205.63C217.638 205.45 217.468 205.319 217.268 205.266C217.068 205.212 216.855 205.24 216.676 205.343C216.496 205.446 216.365 205.617 216.311 205.817C214.474 212.489 212.135 219.013 209.314 225.333C207.927 228.376 206.461 231.37 204.916 234.316C204.739 234.757 204.512 235.175 204.24 235.564C203.938 235.814 203.439 235.772 203.075 235.824C202.119 235.949 201.152 236.063 200.174 236.157C198.334 236.344 196.494 236.458 194.643 236.531C193.603 236.531 193.603 238.132 194.643 238.091V238.163Z" fill="#565A6A"/>
<path d="M204.697 238.548C205.734 243.861 206.239 249.263 206.205 254.675C206.205 254.882 206.287 255.08 206.433 255.226C206.58 255.373 206.778 255.455 206.985 255.455C207.192 255.455 207.39 255.373 207.536 255.226C207.682 255.08 207.765 254.882 207.765 254.675C207.792 249.123 207.269 243.582 206.205 238.133C206.007 237.155 204.5 237.571 204.697 238.548Z" fill="#565A6A"/>
<path d="M2.63129 206.389C4.94659 215.06 8.02951 223.509 11.8435 231.634C12.4193 232.632 12.9131 233.675 13.32 234.753C13.4635 235.969 13.4249 237.199 13.2056 238.403C13.067 240.808 12.9665 243.206 12.9041 245.598C12.7654 250.415 12.7654 255.222 12.9041 260.019C12.9041 261.059 14.4949 261.059 14.4637 260.019C14.2973 255.215 14.2973 250.408 14.4637 245.598C14.5261 243.206 14.6266 240.808 14.7652 238.403C14.9653 237.211 15.0419 236.002 14.994 234.795C14.7003 233.793 14.2737 232.834 13.7255 231.946C9.72743 223.6 6.52133 214.897 4.14933 205.952C4.09418 205.752 3.96187 205.582 3.7815 205.48C3.60113 205.377 3.38749 205.351 3.18756 205.406C2.98763 205.461 2.81781 205.593 2.71543 205.774C2.61306 205.954 2.58654 206.168 2.64169 206.368L2.63129 206.389Z" fill="#565A6A"/>
<path d="M17.0838 234.919C23.156 234.919 29.2177 235.151 35.2691 235.616C36.3089 235.689 36.3089 234.129 35.2691 234.056C29.2247 233.619 23.1629 233.384 17.0838 233.349C16.877 233.349 16.6786 233.431 16.5324 233.578C16.3861 233.724 16.304 233.922 16.304 234.129C16.304 234.336 16.3861 234.534 16.5324 234.68C16.6786 234.827 16.877 234.909 17.0838 234.909V234.919Z" fill="#565A6A"/>
<path d="M39.2722 77.4378L39.2098 74.7657L38.43 75.5455L67.5432 75.8574H71.6086C71.8154 75.8574 72.0138 75.7752 72.16 75.629C72.3063 75.4828 72.3884 75.2844 72.3884 75.0776C72.3884 74.8708 72.3063 74.6724 72.16 74.5262C72.0138 74.3799 71.8154 74.2978 71.6086 74.2978L42.4955 73.9858H38.43C38.224 73.9885 38.0272 74.0716 37.8816 74.2172C37.7359 74.3629 37.6529 74.5597 37.6502 74.7657L37.7126 77.4378C37.7126 77.6447 37.7947 77.843 37.941 77.9892C38.0872 78.1355 38.2856 78.2176 38.4924 78.2176C38.6992 78.2176 38.8976 78.1355 39.0438 77.9892C39.1901 77.843 39.2722 77.6447 39.2722 77.4378Z" fill="#565A6A"/>
<path d="M88.5149 76.0242L94.5559 76.1282H95.4189C95.6257 76.1282 95.8241 76.046 95.9703 75.8998C96.1166 75.7536 96.1987 75.5552 96.1987 75.3484C96.1987 75.1416 96.1166 74.9432 95.9703 74.797C95.8241 74.6507 95.6257 74.5686 95.4189 74.5686L89.3883 74.4646H88.5149C88.3081 74.4646 88.1098 74.5468 87.9635 74.693C87.8173 74.8392 87.7351 75.0376 87.7351 75.2444C87.7351 75.4512 87.8173 75.6496 87.9635 75.7958C88.1098 75.9421 88.3081 76.0242 88.5149 76.0242Z" fill="#565A6A"/>
<path d="M126.726 76.1593H182.166L181.386 75.3795V77.459C181.386 77.6658 181.468 77.8641 181.614 78.0104C181.761 78.1566 181.959 78.2388 182.166 78.2388C182.373 78.2388 182.571 78.1566 182.717 78.0104C182.863 77.8641 182.946 77.6658 182.946 77.459V75.3795C182.943 75.1735 182.86 74.9767 182.714 74.831C182.568 74.6854 182.372 74.6023 182.166 74.5996H126.726C126.519 74.5996 126.321 74.6818 126.175 74.828C126.028 74.9743 125.946 75.1726 125.946 75.3795C125.946 75.5863 126.028 75.7846 126.175 75.9309C126.321 76.0771 126.519 76.1593 126.726 76.1593Z" fill="#565A6A"/>
<path d="M18.4564 240.503C32.2436 258.304 49.701 273.775 71.0472 281.719C77.0904 283.969 83.3689 285.528 89.7628 286.367C90.8026 286.502 90.8026 284.942 89.7628 284.807C67.3561 281.833 47.4448 269.439 31.838 253.51C27.493 249.047 23.4103 244.336 19.6105 239.401C18.9971 238.611 17.8949 239.723 18.5084 240.503H18.4564Z" fill="#565A6A"/>
<path d="M200.881 239.682C190.318 252.294 179.39 265.239 164.698 273.193C163.814 273.671 164.594 275.013 165.478 274.534C180.294 266.528 191.337 253.5 201.984 240.784C202.628 240.014 201.526 238.912 200.881 239.682Z" fill="#565A6A"/>
<path d="M127.891 288.061C132.482 287.714 137.004 286.745 141.335 285.181C142.27 284.838 141.865 283.33 140.919 283.673C136.725 285.204 132.342 286.155 127.891 286.502C126.851 286.574 126.851 288.134 127.891 288.061Z" fill="#565A6A"/>
<path d="M91.707 295.964C98.1743 291.881 104.51 287.604 110.714 283.133L109.768 283.008C115.538 287.708 121.808 291.742 127.943 295.964C128.764 296.525 129.554 295.173 128.722 294.612C122.702 290.453 116.536 286.523 110.87 281.906C110.746 281.787 110.588 281.71 110.417 281.687C110.247 281.665 110.074 281.698 109.924 281.781C103.74 286.273 97.4084 290.55 90.9272 294.612C90.0746 295.142 90.8544 296.494 91.707 295.964Z" fill="#565A6A"/>
<path d="M86.4354 68.9018H95.4189C95.6257 68.9018 95.8241 68.8196 95.9703 68.6734C96.1166 68.5272 96.1987 68.3288 96.1987 68.122C96.1987 67.9152 96.1166 67.7168 95.9703 67.5706C95.8241 67.4243 95.6257 67.3422 95.4189 67.3422H86.4354C86.2286 67.3422 86.0303 67.4243 85.884 67.5706C85.7378 67.7168 85.6556 67.9152 85.6556 68.122C85.6556 68.3288 85.7378 68.5272 85.884 68.6734C86.0303 68.8196 86.2286 68.9018 86.4354 68.9018Z" fill="#565A6A"/>
<path d="M113.022 36.1494C113.64 36.0689 114.218 35.7982 114.675 35.3749C115.132 34.9515 115.447 34.3965 115.575 33.7866C115.703 33.1766 115.638 32.542 115.389 31.9706C115.14 31.3991 114.72 30.9192 114.187 30.5971C112.533 29.6718 110.215 30.15 108.426 30.2436L101.294 30.5971C99.0478 30.7115 96.8123 30.8259 94.5664 30.8779C92.986 30.8779 91.0104 31.0026 90.0123 32.4271C89.6193 33.0796 89.4887 33.8569 89.6469 34.602C89.8052 35.3471 90.2406 36.0042 90.8649 36.4406C92.4037 37.6571 94.6288 37.4803 96.4796 37.4803C102.011 37.3555 107.511 36.6901 113.022 36.2222C114.062 36.139 114.062 34.5794 113.022 34.6626C108.582 35.0369 104.153 35.5464 99.7028 35.7959C97.5711 36.035 95.4193 36.035 93.2875 35.7959C92.3621 35.6296 91.0312 35.0265 91.0936 33.8828C91.156 32.739 92.8924 32.5207 93.7866 32.4583C97.8104 32.1984 101.865 32.1256 105.889 31.9176C107.896 31.8137 109.986 31.5433 111.993 31.6369C112.856 31.6369 113.885 31.8864 114.135 32.8534C114.189 33.0429 114.202 33.2416 114.174 33.4366C114.146 33.6316 114.077 33.8186 113.972 33.9853C113.868 34.152 113.729 34.2948 113.565 34.4043C113.401 34.5138 113.216 34.5877 113.022 34.621C111.982 34.7458 111.982 36.3054 113.022 36.1806V36.1494Z" fill="#565A6A"/>
<path d="M79.0118 45.2577C77.3066 44.218 78.3983 41.8889 79.3133 40.6932C80.5515 39.136 81.8923 37.6632 83.3267 36.2847C84.7078 34.9103 86.1658 33.6154 87.6937 32.4064C88.5005 31.7506 89.3479 31.1463 90.2307 30.5972C91.0209 30.1293 92.5182 29.7446 92.6741 31.0859C92.7781 32.0736 94.3482 32.1256 94.2338 31.0859C94.2016 30.5479 94.0106 30.0315 93.6848 29.6021C93.3591 29.1727 92.9132 28.8496 92.4038 28.6736C91.7766 28.5508 91.1296 28.5741 90.5129 28.7418C89.8962 28.9095 89.3264 29.2171 88.8478 29.6406C86.6311 31.2019 84.5448 32.9406 82.6093 34.8394C80.6377 36.5998 78.8915 38.5974 77.4105 40.7868C76.2772 42.6791 76.1732 45.3617 78.2423 46.6718C79.0845 47.2021 79.8748 45.8608 79.0222 45.3201L79.0118 45.2577Z" fill="#565A6A"/>
<path d="M80.6546 50.9241C76.6723 51.4544 72.5653 48.7302 72.846 44.3944C73.106 40.4226 76.7971 36.825 79.4277 34.1632C82.1872 31.2946 85.3125 28.802 88.7231 26.7498C90.5739 25.71 92.7469 24.899 94.7433 26.0428C96.5732 27.0825 97.4882 29.0996 98.1329 31.0024C98.4552 31.9486 99.9628 31.5431 99.6405 30.5969C98.6008 27.54 96.6772 24.2232 93.1109 23.9113C89.5445 23.5993 85.895 26.5938 83.1812 28.7253C79.9981 31.2223 77.1222 34.0877 74.6136 37.2617C72.4717 39.9963 70.4546 43.3651 71.5983 46.9522C72.2116 48.7952 73.4574 50.3616 75.115 51.374C76.7725 52.3864 78.7349 52.7795 80.6546 52.4837C81.632 52.3486 81.6943 50.7889 80.6546 50.9241Z" fill="#565A6A"/>
<path d="M85.4686 44.977C88.2962 42.5859 90.9539 40.0011 93.4227 37.2412C94.0986 36.5029 92.9964 35.3904 92.3206 36.139C89.8492 38.8965 87.1916 41.4811 84.3665 43.8748C84.2287 44.0226 84.1537 44.2182 84.1573 44.4202C84.1609 44.6222 84.2427 44.815 84.3856 44.9578C84.5285 45.1007 84.7212 45.1826 84.9232 45.1861C85.1253 45.1897 85.3208 45.1147 85.4686 44.977Z" fill="#565A6A"/>
<path d="M86.6953 51.0281L99.6611 37.4281C100.358 36.7106 99.2556 35.5981 98.559 36.3259L85.5932 49.9259C84.8966 50.6538 85.9987 51.7559 86.6953 51.0281Z" fill="#565A6A"/>
<path d="M78.1903 43.5006C78.8298 43.1052 79.5563 42.872 80.3065 42.8213C81.0567 42.7705 81.8079 42.9038 82.4949 43.2095C83.8362 43.9373 84.2521 45.5385 84.4912 46.9318C84.9865 50.3742 85.1779 53.8535 85.0631 57.3294C85.0631 59.0138 84.9903 60.7086 84.9175 62.393C84.9349 64.0659 84.7711 65.7358 84.4288 67.3734C83.6282 70.4927 80.5609 72.4578 77.712 70.2951C76.9218 69.6817 76.142 71.0333 76.9322 71.6364C77.5608 72.108 78.2826 72.4403 79.0497 72.6112C79.8168 72.782 80.6114 72.7874 81.3807 72.627C82.1501 72.4667 82.8764 72.1442 83.5113 71.6812C84.1463 71.2181 84.6753 70.6251 85.0631 69.9416C85.9161 68.2962 86.3651 66.4714 86.3732 64.6181C86.5187 62.2058 86.5915 59.7728 86.6227 57.3398C86.6539 54.9067 86.6227 52.6089 86.4147 50.2486C86.3825 48.2698 86.053 46.307 85.4374 44.426C84.0649 41.0572 80.3946 40.5581 77.4105 42.1281C76.5163 42.6064 77.3065 43.9477 78.1903 43.4798V43.5006Z" fill="#565A6A"/>
<path d="M78.8661 46.5157C80.1866 46.9316 80.2074 49.9157 80.2594 50.9658C80.353 52.7854 80.2594 54.6362 80.2594 56.4558L80.197 61.8521C80.197 63.2766 80.6233 65.7928 79.0637 66.5518C78.1591 66.9989 78.9493 68.3402 79.8539 67.9035C81.5487 67.0717 81.715 65.1897 81.7358 63.5053C81.7358 61.0168 81.7635 58.5249 81.819 56.0295C81.9511 53.7378 81.8954 51.4392 81.6526 49.1567C81.4135 47.5243 81.112 45.5695 79.3132 44.9977C78.3462 44.7065 77.9407 46.2142 78.8973 46.5053L78.8661 46.5157Z" fill="#565A6A"/>
<path d="M74.3329 50.8102C74.2358 55.1078 74.1734 59.3951 74.1457 63.6719C74.1457 63.8788 74.2279 64.0771 74.3741 64.2234C74.5204 64.3696 74.7187 64.4518 74.9255 64.4518C75.1323 64.4518 75.3307 64.3696 75.4769 64.2234C75.6232 64.0771 75.7053 63.8788 75.7053 63.6719C75.7053 59.3881 75.7677 55.1009 75.8925 50.8102C75.8925 50.6033 75.8103 50.405 75.6641 50.2588C75.5179 50.1125 75.3195 50.0303 75.1127 50.0303C74.9059 50.0303 74.7075 50.1125 74.5613 50.2588C74.415 50.405 74.3329 50.6033 74.3329 50.8102Z" fill="#565A6A"/>
<path d="M80.9455 72.2392C81.9852 75.2233 82.869 78.2386 83.7112 81.2643C83.765 81.4642 83.896 81.6346 84.0754 81.7379C84.2548 81.8413 84.4679 81.8691 84.6678 81.8153C84.8677 81.7616 85.0381 81.6306 85.1415 81.4512C85.2448 81.2718 85.2727 81.0587 85.2189 80.8588C84.3801 77.8504 83.4548 74.8386 82.4427 71.8233C82.1308 70.8771 80.6232 71.2826 80.9455 72.2392Z" fill="#565A6A"/>
<path d="M84.4911 68.0283C85.4061 70.8668 86.373 73.6845 87.2152 76.5439C88.0055 79.2368 89.066 82.5224 88.1406 85.2882C87.8183 86.2344 89.3259 86.6503 89.6379 85.7041C90.5944 82.8552 89.6379 79.5591 88.8996 76.7726C88.0366 73.6533 86.9761 70.6588 85.9987 67.6124C85.6868 66.6558 84.1791 67.0613 84.4911 68.0283Z" fill="#565A6A"/>
<path d="M80.2698 61.2076C76.7243 60.8125 73.605 63.2872 72.3261 66.4064C70.7976 70.2119 71.671 74.3709 72.8668 78.1245C74.0625 81.878 75.0086 86.193 77.764 89.0315C79.8435 91.111 84.0025 92.6083 86.2172 89.9361C86.8515 89.1667 85.7597 88.0645 85.1151 88.8339C82.942 91.4229 79.1365 88.6572 77.7848 86.5569C76.038 83.8327 75.1854 80.3183 74.2288 77.2615C73.2723 74.2046 72.5756 70.9501 73.4906 67.8101C74.4056 64.67 76.9946 62.3722 80.2698 62.7361C81.3096 62.8401 81.3096 61.2804 80.2698 61.1764V61.2076Z" fill="#565A6A"/>
<path d="M78.9908 66.5C78.206 66.9373 77.5446 67.5661 77.0683 68.3279C76.592 69.0896 76.3162 69.9595 76.2666 70.8566C76.3471 71.9475 76.553 73.0255 76.8801 74.0694C77.1504 75.1923 77.4207 76.3257 77.7223 77.4382C78.273 79.6032 78.9677 81.729 79.8018 83.8015C80.488 85.4339 81.6733 87.0351 83.6697 86.5984C84.647 86.3905 84.2311 84.8828 83.2538 85.1012C81.6317 85.4547 80.8935 82.3978 80.5192 81.3477C79.9681 79.8192 79.4794 78.2284 79.0947 76.6896C78.71 75.1507 78.2733 73.5703 77.9406 71.9691C77.726 71.1746 77.787 70.3308 78.1137 69.5754C78.4404 68.8201 79.0135 68.1978 79.7394 67.8101C80.5712 67.259 79.7394 65.9073 78.9492 66.4688L78.9908 66.5Z" fill="#565A6A"/>
<path d="M80.436 82.585C82.3076 81.9195 84.803 81.6908 86.2482 83.3336C87.6494 85.1393 88.7871 87.1347 89.6274 89.2602C90.5992 91.3559 91.3822 93.5342 91.9669 95.7691C92.3874 96.9174 92.4704 98.1622 92.206 99.3562C92.0236 99.8994 91.7092 100.389 91.291 100.781C91.1265 101.017 90.8818 101.185 90.6025 101.254C90.3232 101.323 90.0284 101.287 89.773 101.155C88.8476 100.77 88.4421 102.278 89.3571 102.663C91.8525 103.702 93.7864 100.739 93.9216 98.566C93.9188 97.1015 93.662 95.6486 93.1626 94.2718C92.7271 92.7725 92.2029 91.3003 91.5926 89.8633C90.9715 88.442 90.2774 87.0538 89.5131 85.7042C88.8969 84.4535 88.1285 83.2835 87.2256 82.2211C85.3956 80.2871 82.3387 80.3703 79.9993 81.1813C79.0635 81.514 79.469 83.0217 80.4152 82.689L80.436 82.585Z" fill="#565A6A"/>
<path d="M83.389 86.5879C83.7564 86.903 84.0239 87.3186 84.1584 87.7836C84.4183 88.3347 84.6575 88.8754 84.8966 89.4264C85.3541 90.4662 85.7284 91.5059 86.1235 92.6081C86.5186 93.7102 86.9137 94.6044 87.2465 95.6234C87.4336 96.1744 87.6 96.7255 87.7663 97.287C88.0028 97.7853 88.086 98.3426 88.0055 98.8882C87.6416 99.824 89.1492 100.229 89.5027 99.3041C89.9186 98.1916 89.2428 96.7359 88.9101 95.6754C88.515 94.438 87.9431 93.2527 87.5584 92.0154C87.1503 90.7889 86.6783 89.5846 86.1443 88.4075C85.666 87.3053 85.2605 85.9536 84.2 85.2882C83.3474 84.7475 82.5676 86.0888 83.4098 86.6295L83.389 86.5879Z" fill="#565A6A"/>
<path d="M74.1039 85.7041C75.0295 88.738 76.162 91.7048 77.4935 94.5836C78.5956 96.9439 79.8329 99.4705 82.214 100.822C83.0978 101.3 83.888 99.9592 83.0042 99.4705C80.7999 98.1812 79.729 95.6858 78.7308 93.5023C77.5089 90.8227 76.4669 88.0647 75.6115 85.2466C75.3204 84.2901 73.8128 84.706 74.1039 85.6625V85.7041Z" fill="#565A6A"/>
<path d="M81.8295 91.2459C82.1405 92.6245 82.8363 93.8864 83.8362 94.8851C83.9076 94.9617 83.9937 95.0231 84.0894 95.0658C84.185 95.1084 84.2883 95.1313 84.393 95.1331C84.4977 95.135 84.6017 95.1157 84.6988 95.0765C84.7959 95.0373 84.8841 94.9789 84.9582 94.9049C85.0322 94.8308 85.0906 94.7426 85.1298 94.6455C85.169 94.5484 85.1883 94.4444 85.1864 94.3397C85.1846 94.235 85.1617 94.1317 85.119 94.0361C85.0764 93.9404 85.015 93.8543 84.9384 93.7829C84.8344 93.6685 84.72 93.5646 84.6264 93.4502L84.4809 93.2838C84.4592 93.2416 84.4312 93.203 84.3977 93.1695C84.4809 93.2838 84.3977 93.1695 84.3977 93.1695C84.2175 92.9199 84.0511 92.66 83.8986 92.3896C83.8362 92.2649 83.7634 92.1401 83.701 92.0049C83.7051 91.9634 83.7051 91.9217 83.701 91.8802C83.701 92.0153 83.701 91.7866 83.701 91.8802C83.701 91.745 83.701 91.745 83.6283 91.6722C83.5163 91.3741 83.426 91.0683 83.3579 90.7572C83.3021 90.5591 83.1702 90.3911 82.991 90.2898C82.8118 90.1885 82.5999 90.1622 82.4014 90.2166C82.2028 90.2725 82.034 90.4039 81.9311 90.5827C81.8281 90.7614 81.7991 90.9733 81.8503 91.1731L81.8295 91.2459Z" fill="#565A6A"/>
<path d="M86.3003 92.0361C84.4755 93.3423 83.1725 95.2527 82.6224 97.4283C82.0723 99.6039 82.3107 101.904 83.2954 103.921C84.3573 105.851 85.8433 107.514 87.6415 108.787C89.5298 110.326 91.6312 111.583 93.8801 112.519C94.8159 112.883 95.2214 111.376 94.296 111.012C92.4647 110.238 90.7445 109.224 89.1804 107.996C87.5684 106.91 86.181 105.522 85.0942 103.91C84.0472 102.224 83.6735 100.205 84.0472 98.2549C84.421 96.3053 85.5148 94.5677 87.1113 93.3878C87.9119 92.7952 87.1113 91.4435 86.3211 92.0361H86.3003Z" fill="#565A6A"/>
<path d="M87.8913 98.5453C86.8515 100.344 87.7145 102.455 89.1286 103.744C90.694 105.065 92.478 106.103 94.4001 106.811C94.6001 106.867 94.8137 106.84 94.9941 106.738C95.1745 106.635 95.3068 106.465 95.3619 106.266C95.4171 106.066 95.3905 105.852 95.2882 105.672C95.1858 105.491 95.016 105.359 94.816 105.304C93.2615 104.719 91.8061 103.898 90.5011 102.871C89.4613 102.039 88.4943 100.625 89.243 99.3148C89.2948 99.226 89.3287 99.1279 89.3427 99.0261C89.3567 98.9242 89.3505 98.8206 89.3244 98.7212C89.2983 98.6217 89.2529 98.5284 89.1908 98.4465C89.1286 98.3646 89.051 98.2957 88.9622 98.2438C88.8735 98.1919 88.7754 98.158 88.6735 98.1441C88.5717 98.1301 88.468 98.1363 88.3686 98.1624C88.2692 98.1885 88.1758 98.2339 88.0939 98.296C88.012 98.3581 87.9432 98.4358 87.8913 98.5246V98.5453Z" fill="#565A6A"/>
<path d="M91.5094 92.5875C91.7694 92.7123 92.0189 92.8578 92.258 93.0034C92.4972 93.149 92.7259 93.3257 92.9651 93.4817L93.0587 93.5545L93.2146 93.6792L93.5265 93.96C93.744 94.1584 93.9489 94.3703 94.14 94.5942C94.2875 94.7378 94.4852 94.8181 94.6911 94.8181C94.8969 94.8181 95.0946 94.7378 95.2421 94.5942C95.384 94.4437 95.463 94.2447 95.463 94.0379C95.463 93.8312 95.384 93.6322 95.2421 93.4817C94.432 92.565 93.45 91.8162 92.3516 91.2774C92.1674 91.1773 91.953 91.1478 91.7486 91.1942C91.5556 91.2535 91.3922 91.3835 91.2911 91.5581C91.1943 91.7331 91.1683 91.9385 91.2186 92.132C91.2689 92.3255 91.3916 92.4923 91.5614 92.5979L91.5094 92.5875Z" fill="#565A6A"/>
<path d="M93.1316 99.2831C93.2693 99.3563 93.4014 99.4398 93.5267 99.5327L93.3603 99.4079C93.5399 99.5458 93.7007 99.7066 93.8386 99.8862L93.7138 99.7302C93.7949 99.8259 93.8647 99.9306 93.9218 100.042C94.0303 100.212 94.1964 100.338 94.3897 100.396C94.492 100.422 94.5992 100.422 94.7016 100.396C94.8041 100.385 94.9033 100.353 94.9927 100.302C95.1662 100.197 95.2928 100.03 95.3462 99.8342C95.401 99.6314 95.3749 99.4152 95.2735 99.2312C95.1903 99.096 95.0967 98.9608 95.0031 98.8361C94.9073 98.7112 94.8031 98.5931 94.6912 98.4825C94.4657 98.2534 94.2062 98.0605 93.9218 97.9107C93.7378 97.8092 93.5216 97.7831 93.3187 97.8379C93.2178 97.8569 93.1241 97.9037 93.0484 97.9731C92.9646 98.0274 92.8965 98.1026 92.8508 98.1914C92.7599 98.3686 92.7383 98.5733 92.7902 98.7655C92.8421 98.9578 92.9638 99.1238 93.1316 99.2312V99.2831Z" fill="#565A6A"/>
<path d="M125.697 112.114C127.059 112.935 128.816 113.351 129.668 114.776C130.376 116.039 130.608 117.515 130.323 118.935C130.277 119.133 130.307 119.341 130.407 119.518C130.507 119.696 130.67 119.829 130.864 119.891C130.963 119.918 131.066 119.925 131.168 119.912C131.27 119.898 131.368 119.865 131.457 119.814C131.546 119.763 131.623 119.695 131.686 119.613C131.748 119.532 131.794 119.439 131.821 119.34C132.21 117.543 131.944 115.666 131.072 114.048C130.588 113.244 129.913 112.573 129.107 112.093C128.265 111.573 127.329 111.24 126.487 110.731C126.31 110.641 126.105 110.621 125.914 110.677C125.724 110.732 125.561 110.859 125.461 111.03C125.36 111.201 125.328 111.404 125.372 111.598C125.416 111.792 125.532 111.961 125.697 112.072V112.114Z" fill="#565A6A"/>
<path d="M125.458 106.499C128.93 107.84 133.017 109.431 134.607 113.112C136.053 116.47 135.325 122.189 131.27 123.312C131.07 123.366 130.899 123.497 130.796 123.676C130.693 123.856 130.665 124.069 130.719 124.269C130.772 124.469 130.903 124.639 131.083 124.742C131.262 124.846 131.475 124.873 131.675 124.82C136.417 123.51 137.664 117.458 136.333 113.289C134.847 108.631 130.095 106.603 125.873 104.971C124.938 104.607 124.532 106.114 125.458 106.468V106.499Z" fill="#565A6A"/>
<path d="M130.064 113.777C125.634 114.911 124.699 119.902 125.208 123.811C125.759 127.97 126.674 132.576 129.773 135.571C130.5 136.267 131.602 135.165 130.875 134.469C128.275 131.952 127.537 128.23 126.934 124.799C126.331 121.368 126.331 116.346 130.48 115.275C130.663 115.207 130.813 115.072 130.902 114.898C130.991 114.724 131.011 114.523 130.959 114.335C130.907 114.147 130.786 113.985 130.62 113.882C130.454 113.779 130.256 113.741 130.064 113.777Z" fill="#565A6A"/>
<path d="M130.084 119.486C129.734 120.997 129.78 122.573 130.22 124.06C130.555 125.618 131.038 127.139 131.665 128.604C131.725 128.799 131.858 128.964 132.036 129.065C132.214 129.165 132.423 129.194 132.621 129.145C132.82 129.089 132.989 128.957 133.092 128.779C133.195 128.6 133.224 128.388 133.172 128.188C132.587 126.825 132.125 125.412 131.79 123.967C131.362 122.65 131.293 121.243 131.592 119.891C131.894 118.934 130.396 118.529 130.084 119.486Z" fill="#565A6A"/>
<path d="M135.699 115.004C139.775 117.739 140.898 122.834 141.449 127.388C141.629 128.599 141.716 129.823 141.709 131.048C141.803 132.279 141.559 133.512 141.002 134.614C140.469 135.265 139.775 135.763 138.988 136.059C138.201 136.355 137.35 136.437 136.521 136.299C135.533 136.101 135.117 137.598 136.105 137.796C137.059 137.97 138.04 137.93 138.977 137.678C139.914 137.426 140.783 136.969 141.522 136.34C143.601 134.562 143.425 131.141 143.165 128.656C142.572 123.114 141.439 116.98 136.489 113.653C135.658 113.091 134.878 114.443 135.699 115.004Z" fill="#565A6A"/>
<path d="M135.127 121.129C136.268 123.519 136.936 126.107 137.092 128.75C137.092 129.166 137.383 130.736 136.832 130.83C136.632 130.885 136.463 131.017 136.36 131.198C136.258 131.378 136.231 131.592 136.286 131.791C136.342 131.991 136.474 132.161 136.654 132.264C136.835 132.366 137.048 132.393 137.248 132.337C137.711 132.18 138.106 131.869 138.368 131.457C138.631 131.045 138.746 130.556 138.693 130.071C138.704 128.953 138.62 127.837 138.444 126.733C138.115 124.505 137.453 122.339 136.479 120.307C136.053 119.392 134.701 120.183 135.127 121.087V121.129Z" fill="#565A6A"/>
<path d="M137.945 127.741C135.657 124.944 132.039 127.19 130.916 129.821C130.272 131.653 129.83 133.549 129.596 135.477C129.19 137.609 128.785 139.74 128.4 141.882C128.015 144.024 127.693 145.927 127.454 147.954C127.115 149.62 127.208 151.346 127.724 152.966C127.986 153.571 128.394 154.102 128.913 154.51C129.431 154.919 130.043 155.191 130.693 155.304C131.343 155.416 132.011 155.365 132.636 155.155C133.261 154.944 133.825 154.582 134.275 154.099C134.961 153.371 133.869 152.259 133.172 152.997C132.797 153.413 132.292 153.691 131.739 153.785C131.187 153.88 130.618 153.785 130.126 153.517C128.899 152.81 128.795 151.177 128.837 149.919C129.046 147.028 129.46 144.154 130.074 141.321C130.594 138.534 131.114 135.747 131.654 133.003C131.801 131.579 132.329 130.221 133.183 129.072C134.223 128.033 135.813 127.585 136.843 128.854C137.477 129.634 138.579 128.521 137.945 127.752V127.741Z" fill="#565A6A"/>
<path d="M136.084 131.454C134.698 137.789 133.658 144.173 132.965 150.606C132.85 151.646 134.41 151.646 134.524 150.606C135.259 144.319 136.299 138.08 137.644 131.89C137.851 130.913 136.344 130.497 136.136 131.474L136.084 131.454Z" fill="#565A6A"/>
<path d="M113.75 159.579C113.23 158.009 114.987 156.792 115.996 155.888C117.25 154.758 118.526 153.639 119.822 152.529C121.118 151.42 122.39 150.381 123.638 149.41L125.53 147.923C126.112 147.476 126.892 146.769 127.682 146.884C128.722 147.071 129.086 145.563 128.098 145.376C126.227 145.033 124.782 146.509 123.419 147.58C121.829 148.828 120.3 150.117 118.72 151.427C117.139 152.737 115.601 154.079 114.155 155.451C112.876 156.626 111.639 158.144 112.242 159.995C112.554 160.941 114.062 160.536 113.75 159.579Z" fill="#565A6A"/>
<path d="M119.073 159.194C121.957 156.525 124.945 153.971 128.036 151.531C128.182 151.385 128.264 151.186 128.264 150.98C128.264 150.773 128.182 150.575 128.036 150.429C127.887 150.288 127.69 150.209 127.485 150.209C127.28 150.209 127.083 150.288 126.934 150.429C123.849 152.862 120.862 155.416 117.971 158.092C117.233 158.778 118.335 159.88 119.073 159.194Z" fill="#565A6A"/>
<path d="M133.516 151.271C133.994 151.635 133.443 152.706 133.245 153.07C132.801 153.857 132.271 154.593 131.665 155.264C130.401 156.666 129.061 157.999 127.651 159.256C126.304 160.549 124.865 161.745 123.347 162.833C121.87 163.873 120.103 164.195 118.72 162.833C118.572 162.695 118.377 162.62 118.175 162.624C117.973 162.627 117.78 162.709 117.637 162.852C117.494 162.995 117.412 163.188 117.409 163.39C117.405 163.592 117.48 163.787 117.618 163.935C121.434 167.751 126.154 162.781 128.972 160.182C130.805 158.611 132.468 156.851 133.932 154.931C134.971 153.506 136.011 151.271 134.306 149.95C133.505 149.337 132.725 150.699 133.516 151.292V151.271Z" fill="#565A6A"/>
<path d="M134.171 147.341C135.566 147.877 136.728 148.885 137.456 150.191C138.184 151.496 138.43 153.015 138.153 154.484C137.862 156.002 136.354 157.509 135.325 158.57C134.14 159.797 132.85 160.93 131.603 162.105C129.076 164.476 126.497 166.784 123.285 168.105C121.782 168.82 120.083 169.01 118.46 168.645C117.675 168.436 116.934 168.083 116.277 167.605C115.767 167.242 114.405 166.223 114.613 165.526C114.668 165.326 114.642 165.112 114.539 164.932C114.437 164.752 114.267 164.619 114.067 164.564C113.867 164.509 113.654 164.536 113.473 164.638C113.293 164.74 113.161 164.91 113.105 165.11C112.637 166.732 114.291 168.156 115.486 168.978C117.129 170.094 119.119 170.577 121.091 170.34C125.25 169.851 128.941 166.722 131.894 163.987C133.589 162.407 135.377 160.868 136.947 159.152C138.07 157.925 139.609 156.189 139.765 154.453C140.004 152.713 139.663 150.943 138.794 149.417C137.926 147.89 136.579 146.693 134.961 146.01C134.046 145.615 133.245 146.966 134.171 147.361V147.341Z" fill="#565A6A"/>
<path d="M123.118 163.364C122.829 161.975 122.089 160.72 121.014 159.795C119.938 158.87 118.587 158.326 117.171 158.248C113.48 158.092 110.184 160.764 107.376 162.823C104.261 165.045 101.396 167.597 98.8294 170.434C96.6563 172.898 94.6704 175.83 95.7101 179.262C96.1582 180.88 97.2037 182.269 98.6356 183.147C100.067 184.025 101.779 184.327 103.425 183.992C104.402 183.764 103.987 182.256 103.009 182.485C99.2141 183.4 96.1676 179.251 97.2178 175.737C97.9253 173.955 99.0108 172.348 100.399 171.027C101.594 169.729 102.861 168.501 104.195 167.346C106.884 164.915 109.826 162.778 112.97 160.972C114.644 160.057 116.692 159.392 118.574 160.088C119.353 160.396 120.041 160.896 120.573 161.541C121.106 162.187 121.467 162.957 121.621 163.78C121.829 164.757 123.336 164.341 123.128 163.364H123.118Z" fill="#565A6A"/>
<path d="M103.81 177.348C103.662 177.393 103.508 177.408 103.354 177.392C103.201 177.376 103.052 177.331 102.917 177.257C102.782 177.184 102.662 177.084 102.566 176.964C102.469 176.844 102.397 176.706 102.354 176.558C102.063 175.622 102.812 174.738 103.394 174.146C104.86 172.711 106.513 171.39 108.042 170.07C111.015 167.585 114.28 164.684 118.107 163.831C119.084 163.603 118.668 162.105 117.691 162.324C115.349 162.96 113.163 164.067 111.265 165.578C109.123 167.159 107.106 168.874 105.026 170.621C103.425 172.004 100.867 173.605 100.68 175.924C100.643 176.363 100.703 176.805 100.856 177.218C101.009 177.631 101.25 178.006 101.564 178.315C101.916 178.614 102.336 178.823 102.787 178.925C103.238 179.026 103.707 179.017 104.153 178.897C105.141 178.742 104.715 177.234 103.737 177.39L103.81 177.348Z" fill="#565A6A"/>
<path d="M107.594 177.483L116.765 169.498C117.524 168.843 116.412 167.741 115.663 168.396L106.492 176.381C105.733 177.036 106.846 178.138 107.594 177.483Z" fill="#565A6A"/>
<path d="M109.632 182.225C114.436 178.191 119.056 173.955 123.492 169.519C123.63 169.371 123.705 169.176 123.702 168.974C123.698 168.772 123.616 168.579 123.473 168.436C123.33 168.293 123.138 168.211 122.936 168.208C122.734 168.204 122.538 168.279 122.39 168.417C117.947 172.853 113.327 177.088 108.53 181.123C107.761 181.767 108.863 182.869 109.632 182.225Z" fill="#565A6A"/>
<path d="M102.427 175.123C103.212 175.223 103.97 175.477 104.656 175.871C105.343 176.264 105.945 176.79 106.428 177.417C106.911 178.044 107.266 178.76 107.471 179.525C107.677 180.289 107.729 181.086 107.626 181.871C107.158 184.99 104.434 187.413 102.157 189.357C99.6985 191.465 96.967 193.231 94.0361 194.608C92.4723 195.366 90.762 195.774 89.0244 195.804C87.2984 195.804 84.8654 195.336 84.6367 193.215C84.5431 192.227 82.9835 192.175 83.077 193.215C83.4929 197.426 88.5357 197.779 91.8006 197.051C95.8556 196.147 99.7755 193.35 102.926 190.74C105.806 188.349 109.165 185.229 109.248 181.216C109.278 179.387 108.643 177.609 107.461 176.213C106.28 174.817 104.631 173.898 102.822 173.626C101.845 173.47 101.418 174.977 102.406 175.123H102.427Z" fill="#565A6A"/>
<path d="M84.2104 187.007C84.855 184.273 87.548 182.401 89.6275 180.675C91.9962 178.757 94.5056 177.019 97.1345 175.477C97.2992 175.365 97.4153 175.196 97.4592 175.002C97.503 174.808 97.4713 174.605 97.3705 174.434C97.2697 174.263 97.1073 174.137 96.9166 174.081C96.7259 174.026 96.5212 174.045 96.3443 174.135C93.5362 175.784 90.8596 177.648 88.3382 179.708C86.0819 181.538 83.4097 183.597 82.7027 186.571C82.474 187.548 83.9712 187.964 84.2104 186.987V187.007Z" fill="#565A6A"/>
<path d="M89.846 186.56C92.2525 184.534 94.769 182.642 97.3842 180.894C98.2056 180.343 97.3842 178.991 96.594 179.552C93.8725 181.374 91.2519 183.342 88.7438 185.448C88.5963 185.594 88.5129 185.793 88.5119 186C88.5109 186.208 88.5925 186.408 88.7386 186.555C88.8848 186.703 89.0836 186.786 89.2912 186.787C89.4989 186.788 89.6985 186.706 89.846 186.56Z" fill="#565A6A"/>
<path d="M87.9225 191.998C89.6693 193.548 91.9151 192.435 93.6827 191.52C95.7115 190.416 97.6391 189.136 99.443 187.694C101.107 186.415 103.113 185.125 104.278 183.348C104.835 182.521 105.15 181.556 105.189 180.561C105.228 179.565 104.988 178.579 104.496 177.712C103.976 176.859 102.625 177.639 103.155 178.502C105.234 181.913 100.805 184.678 98.5592 186.425C97.1376 187.56 95.6442 188.602 94.0882 189.544C93.3166 189.995 92.5219 190.405 91.7072 190.771C90.917 191.114 89.8148 191.562 89.0662 190.896C88.3176 190.231 87.205 191.333 87.9641 191.998H87.9225Z" fill="#565A6A"/>
<path d="M93.5995 190.054C92.7884 186.644 89.2949 184.855 85.9573 185.251C82.1621 185.739 79.0637 188.515 77.2337 191.749C75.2601 195.44 74.3291 199.599 74.5407 203.779C74.7279 207.366 77.1817 210.402 80.9872 210.205C82.027 210.153 82.027 208.593 80.9872 208.645C73.2722 209.051 76.3395 196.719 78.4086 192.851C79.7219 190.144 82.0493 188.063 84.8863 187.06C87.7872 186.186 91.3224 187.247 92.1022 190.47C92.3309 191.447 93.8386 191.032 93.5995 190.054Z" fill="#565A6A"/>
<path d="M88.8789 190.283C85.5932 189.597 82.6403 191.853 81.2367 194.702C80.5321 196.279 80.056 197.949 79.8226 199.661C79.5603 201.031 79.4903 202.431 79.6147 203.82C79.7082 204.808 81.2679 204.86 81.1743 203.82C80.9618 201.186 81.364 198.537 82.3492 196.085C83.2954 193.672 85.6348 191.187 88.4838 191.79C89.4611 191.998 89.877 190.491 88.8997 190.283H88.8789Z" fill="#565A6A"/>
<path d="M87.0073 196.656C86.8781 197.361 86.7009 198.055 86.477 198.736C86.3731 199.069 86.2483 199.401 86.1235 199.724C86.1235 199.724 86.0091 199.973 86.1235 199.848C86.0826 199.925 86.0479 200.005 86.0195 200.087L85.7804 200.587C85.687 200.763 85.6641 200.969 85.7162 201.162C85.7683 201.355 85.8915 201.521 86.0611 201.626C86.2373 201.722 86.4436 201.747 86.6372 201.694C86.8309 201.642 86.9969 201.517 87.1009 201.346C87.7733 199.99 88.2561 198.549 88.5357 197.062C88.5734 196.961 88.5897 196.853 88.5835 196.745C88.5772 196.637 88.5487 196.532 88.4996 196.435C88.4505 196.339 88.382 196.254 88.2983 196.186C88.2147 196.117 88.1177 196.067 88.0136 196.038C87.9096 196.009 87.8006 196.002 87.6937 196.018C87.5868 196.033 87.4842 196.071 87.3926 196.128C87.3009 196.185 87.2221 196.26 87.1611 196.35C87.1002 196.439 87.0584 196.54 87.0385 196.646L87.0073 196.656Z" fill="#565A6A"/>
<path d="M92.2894 195.918C91.4368 200.077 90.2827 205.453 85.7909 207.137C84.8552 207.491 85.2607 208.998 86.1964 208.645C91.312 206.721 92.7989 201.159 93.7867 196.334C93.9946 195.357 92.487 194.931 92.2894 195.918Z" fill="#565A6A"/>
<path d="M87.6521 197.634C85.323 195.793 82.2245 196.854 80.8105 199.297C79.1053 202.229 79.7707 206.087 80.2386 209.269C80.5784 212.685 81.4667 216.023 82.8692 219.157C84.0129 221.475 86.9034 223.617 89.3885 221.735C90.1787 221.132 89.3885 219.781 88.5983 220.384C86.3212 222.12 84.4392 219.105 83.7426 217.264C82.8669 214.876 82.2465 212.401 81.8918 209.882C81.3335 207.283 81.1932 204.612 81.4759 201.97C81.871 199.89 84.1793 196.844 86.5499 198.715C87.3297 199.339 88.4423 198.237 87.6521 197.613V197.634Z" fill="#565A6A"/>
<path d="M85.926 200.67C84.5847 201.252 84.3248 202.75 84.3352 204.08C84.3627 205.662 84.5052 207.24 84.7614 208.801C84.9987 210.328 85.3462 211.836 85.8012 213.313C86.1755 214.468 86.7786 215.892 88.2446 215.591C89.2844 215.383 88.8165 213.885 87.8391 214.083C87.5376 214.145 86.9345 211.639 86.8514 211.338C86.5738 210.283 86.3517 209.214 86.1859 208.135C86.0197 207.044 85.9156 205.943 85.874 204.839C85.874 203.893 85.6244 202.469 86.6746 202.011C87.7248 201.554 86.7994 200.275 85.8844 200.67H85.926Z" fill="#565A6A"/>
<path d="M81.1952 215.071C78.8141 218.19 81.1328 222.276 82.9108 225.084C84.906 228.255 87.3905 231.09 90.2722 233.485C91.0416 234.119 92.1438 233.027 91.3744 232.383C88.8183 230.264 86.5807 227.788 84.7303 225.032C83.1083 222.588 80.3841 218.699 82.5364 215.85C83.1499 215.05 81.7878 214.27 81.1952 215.06V215.071Z" fill="#565A6A"/>
<path d="M87.8808 222.141L91.0001 226.55C91.1074 226.717 91.2734 226.839 91.4657 226.891C91.658 226.943 91.8627 226.921 92.0398 226.83C92.2114 226.726 92.3362 226.56 92.3885 226.367C92.4408 226.173 92.4165 225.967 92.3206 225.79L89.2013 221.382C89.0956 221.212 88.9296 221.089 88.7367 221.037C88.5437 220.985 88.3382 221.008 88.1615 221.101C87.99 221.205 87.8651 221.371 87.8129 221.565C87.7606 221.758 87.7849 221.965 87.8808 222.141Z" fill="#565A6A"/>
<path d="M88.1304 215.892C88.3072 215.892 88.4319 216.006 88.5983 216.162C88.7647 216.318 89.0246 216.63 89.2221 216.88C89.6029 217.336 89.9504 217.819 90.2619 218.325C90.8703 219.37 91.3255 220.498 91.6136 221.673C91.8423 222.65 93.35 222.234 93.1108 221.257C92.771 219.848 92.2057 218.503 91.4368 217.275C91.0565 216.66 90.6289 216.076 90.1579 215.528C89.6485 214.946 89.0142 214.249 88.1616 214.332C87.9572 214.34 87.7633 214.425 87.6187 214.569C87.4741 214.714 87.3895 214.908 87.3818 215.112C87.3818 215.319 87.4639 215.517 87.6102 215.663C87.7564 215.81 87.9548 215.892 88.1616 215.892H88.1304Z" fill="#565A6A"/>
<path d="M86.8929 211.618C87.3287 211.333 87.8555 211.222 88.3694 211.306C88.8947 211.341 89.4092 211.471 89.8874 211.691C90.8769 212.133 91.6715 212.921 92.1229 213.906C92.1855 214.102 92.3201 214.267 92.4997 214.367C92.6792 214.467 92.8902 214.496 93.0899 214.446C93.1887 214.42 93.2813 214.374 93.3622 214.312C93.4431 214.249 93.5107 214.171 93.5611 214.082C93.6114 213.993 93.6435 213.894 93.6554 213.793C93.6674 213.691 93.6589 213.588 93.6305 213.49C93.0457 212.053 91.928 210.898 90.5113 210.267C89.066 209.632 87.0593 209.372 85.8012 210.516C85.6551 210.662 85.5731 210.861 85.5731 211.067C85.5731 211.274 85.6551 211.472 85.8012 211.618C85.9487 211.762 86.1464 211.842 86.3522 211.842C86.5581 211.842 86.7558 211.762 86.9033 211.618H86.8929Z" fill="#565A6A"/>
<path d="M89.6276 221.6C90.215 221.1 90.6516 220.446 90.8885 219.711C91.1254 218.977 91.1532 218.191 90.9689 217.441C90.9129 217.243 90.7815 217.074 90.6028 216.971C90.424 216.868 90.2121 216.839 90.0123 216.89C89.8144 216.951 89.6471 217.084 89.5447 217.264C89.4423 217.444 89.4124 217.656 89.4612 217.857C89.466 217.93 89.466 218.003 89.4612 218.075C89.4612 218.221 89.4612 218.075 89.4612 218.075C89.4716 218.217 89.4716 218.36 89.4612 218.502C89.456 218.578 89.456 218.654 89.4612 218.73C89.4612 218.564 89.4612 218.73 89.4612 218.73C89.4671 218.768 89.4671 218.807 89.4612 218.845C89.4342 218.996 89.396 219.146 89.3468 219.292C89.3271 219.356 89.3028 219.419 89.2741 219.479C89.3468 219.323 89.2741 219.562 89.2741 219.479V219.573C89.2013 219.708 89.1285 219.843 89.0453 219.968L88.9829 220.051C89.0661 219.957 88.9101 220.165 88.9829 220.051L88.8478 220.207C88.741 220.322 88.6264 220.43 88.5046 220.529C88.3586 220.675 88.2766 220.874 88.2766 221.08C88.2766 221.287 88.3586 221.485 88.5046 221.631C88.6522 221.775 88.8499 221.855 89.0557 221.855C89.2615 221.855 89.4593 221.775 89.6068 221.631L89.6276 221.6Z" fill="#565A6A"/>
<path d="M89.2739 205.515L90.3137 211.358C90.3718 211.555 90.5041 211.721 90.6826 211.822C90.8611 211.923 91.0718 211.951 91.2703 211.899C91.4673 211.841 91.6345 211.709 91.737 211.531C91.8396 211.353 91.8698 211.142 91.8213 210.943L90.7192 205.11C90.6927 205.01 90.6469 204.918 90.5844 204.836C90.5219 204.755 90.4441 204.687 90.3552 204.636C90.2663 204.584 90.1683 204.551 90.0666 204.538C89.9649 204.525 89.8616 204.532 89.7626 204.558C89.566 204.617 89.3997 204.749 89.2988 204.927C89.1979 205.106 89.1704 205.317 89.2219 205.515H89.2739Z" fill="#565A6A"/>
<path d="M104.08 30.6593C104.136 29.604 104.306 28.5581 104.59 27.54C104.756 26.7373 105.225 26.0296 105.9 25.5645C107.355 24.7431 109.508 25.4085 110.87 26.1155C112.494 26.9635 113.797 28.3201 114.578 29.978C115.359 31.6359 115.576 33.5039 115.195 35.2966C114.987 36.2739 116.484 36.6898 116.703 35.7125C116.995 34.4359 117.029 33.1139 116.805 31.8237C116.581 30.5335 116.102 29.3009 115.397 28.1976C114.691 27.0944 113.773 26.1426 112.696 25.3977C111.619 24.6529 110.404 24.1299 109.123 23.8593C107.47 23.5162 105.525 23.5577 104.288 24.899C103.051 26.2403 102.645 28.7669 102.52 30.6801C102.458 31.7198 104.018 31.7198 104.08 30.6801V30.6593Z" fill="#565A6A"/>
<path d="M109.008 29.8071V29.7447L109.092 29.9215C109.08 29.8808 109.08 29.8374 109.092 29.7967V30.0046C109.087 29.9528 109.087 29.9005 109.092 29.8487V30.0566C109.087 29.9978 109.087 29.9387 109.092 29.8799L109.008 30.067C109.037 30.0112 109.072 29.9589 109.112 29.9111L108.988 30.067L109.123 29.9319L108.967 30.0566C109.008 30.023 109.053 29.995 109.102 29.9734L108.915 30.0462H109.133H108.925H109.144H108.936L109.216 30.119L109.029 30.0462C109.142 30.0885 109.247 30.1482 109.341 30.223L109.185 30.1086C109.301 30.1967 109.403 30.3019 109.487 30.4205L109.372 30.2646C109.517 30.4696 109.645 30.685 109.757 30.9092C109.859 31.0828 110.025 31.2094 110.22 31.2618C110.414 31.3143 110.621 31.2885 110.797 31.19C110.966 31.0843 111.09 30.9182 111.142 30.7253C111.194 30.5324 111.171 30.3269 111.078 30.1502C110.905 29.7698 110.673 29.419 110.391 29.1104C110.035 28.7551 109.562 28.5408 109.06 28.5074C108.798 28.497 108.538 28.5547 108.305 28.675C108.071 28.7953 107.873 28.974 107.73 29.1936C107.583 29.4054 107.499 29.6539 107.486 29.9111C107.473 30.1683 107.532 30.4239 107.657 30.6493C107.763 30.8189 107.929 30.9421 108.121 30.9942C108.314 31.0463 108.52 31.0234 108.697 30.93C108.862 30.8211 108.983 30.6551 109.034 30.4635C109.086 30.2718 109.066 30.0679 108.977 29.8903L109.008 29.8071Z" fill="#565A6A"/>
<path d="M102.926 36.971C103.746 39.3665 105.419 41.3763 107.626 42.6169C108.693 43.1664 109.899 43.3903 111.093 43.261C112.287 43.1316 113.417 42.6546 114.342 41.8891C115.091 41.2132 113.989 40.1111 113.24 40.7869C112.521 41.3441 111.653 41.6743 110.745 41.7355C109.838 41.7966 108.933 41.5858 108.145 41.1301C106.421 40.0751 105.11 38.4602 104.434 36.5551C104.371 36.3614 104.238 36.1983 104.061 36.0981C103.884 35.998 103.675 35.9681 103.477 36.0145C103.278 36.0704 103.11 36.2018 103.007 36.3806C102.904 36.5593 102.875 36.7712 102.926 36.971Z" fill="#565A6A"/>
<path d="M113.916 35.9831C114.511 36.0719 115.081 36.2866 115.586 36.6129C116.092 36.9392 116.522 37.3696 116.848 37.8754C117.598 39.1286 117.96 40.5758 117.888 42.0344C117.888 42.2412 117.97 42.4396 118.116 42.5858C118.263 42.7321 118.461 42.8142 118.668 42.8142C118.875 42.8142 119.073 42.7321 119.219 42.5858C119.365 42.4396 119.448 42.2412 119.448 42.0344C119.531 40.2774 119.078 38.5366 118.148 37.0436C117.721 36.3818 117.163 35.8144 116.509 35.3763C115.854 34.9382 115.117 34.6387 114.342 34.4962C114.143 34.4477 113.932 34.4779 113.754 34.5805C113.576 34.6831 113.444 34.8502 113.386 35.0473C113.331 35.2458 113.358 35.4578 113.459 35.637C113.56 35.8162 113.728 35.948 113.927 36.0038L113.916 35.9831Z" fill="#565A6A"/>
<path d="M115.112 43.6462C115.131 42.6583 114.911 41.6804 114.469 40.7966C114.027 39.9127 113.377 39.1494 112.575 38.5722C111.836 38.034 110.981 37.6777 110.079 37.5325H109.684C109.595 37.4831 109.52 37.4115 109.466 37.3245C109.379 37.2056 109.325 37.0656 109.31 36.919C109.31 36.919 109.31 36.6799 109.31 36.6175C109.362 36.4177 109.335 36.2056 109.234 36.0254C109.133 35.8452 108.967 35.7109 108.769 35.6505C108.67 35.6238 108.567 35.6168 108.465 35.6301C108.364 35.6433 108.266 35.6765 108.177 35.7276C108.088 35.7788 108.01 35.847 107.948 35.9284C107.885 36.0097 107.839 36.1025 107.813 36.2016C107.711 36.6304 107.723 37.0784 107.847 37.5014C107.97 37.9244 108.203 38.3078 108.52 38.6138C109.175 39.2065 110.1 39.1129 110.89 39.4664C111.69 39.8312 112.366 40.4204 112.837 41.1625C113.308 41.9046 113.553 42.7675 113.542 43.6462C113.542 43.8531 113.624 44.0514 113.77 44.1976C113.916 44.3439 114.115 44.426 114.322 44.426C114.528 44.426 114.727 44.3439 114.873 44.1976C115.019 44.0514 115.101 43.8531 115.101 43.6462H115.112Z" fill="#565A6A"/>
<path d="M103.404 38.1975C103.074 40.0883 102.986 42.0136 103.144 43.9266C103.15 44.1317 103.234 44.327 103.379 44.4721C103.524 44.6173 103.719 44.7011 103.924 44.7064C104.131 44.7064 104.329 44.6242 104.476 44.478C104.622 44.3317 104.704 44.1334 104.704 43.9266C104.534 42.1553 104.593 40.3695 104.881 38.6134C104.927 38.4125 104.896 38.2015 104.794 38.0224C104.692 37.8432 104.526 37.709 104.33 37.6464C104.13 37.598 103.919 37.6282 103.741 37.7307C103.563 37.8333 103.431 38.0004 103.373 38.1975H103.404Z" fill="#565A6A"/>
<path d="M107.844 42.7104C107.82 43.4047 107.848 44.0998 107.927 44.7899C107.934 44.9954 108.015 45.1914 108.156 45.341C108.302 45.4873 108.5 45.5696 108.707 45.5698C108.913 45.5633 109.109 45.4819 109.258 45.341C109.332 45.2694 109.39 45.1836 109.429 45.0889C109.468 44.9942 109.488 44.8925 109.487 44.7899C109.407 44.0998 109.38 43.4047 109.404 42.7104C109.404 42.5036 109.322 42.3053 109.175 42.159C109.029 42.0128 108.831 41.9306 108.624 41.9306C108.419 41.9359 108.224 42.0197 108.078 42.1648C107.933 42.31 107.849 42.5053 107.844 42.7104Z" fill="#565A6A"/>
<path d="M130.261 245.473C131.878 248.236 134.127 250.577 136.824 252.303C139.52 254.029 142.588 255.091 145.774 255.402C146.814 255.506 146.814 253.947 145.774 253.843C142.869 253.525 140.079 252.53 137.627 250.939C135.175 249.349 133.129 247.206 131.654 244.683C131.543 244.518 131.374 244.402 131.18 244.358C130.986 244.314 130.783 244.346 130.612 244.447C130.441 244.547 130.315 244.71 130.259 244.9C130.204 245.091 130.223 245.296 130.313 245.473H130.261Z" fill="#565A6A"/>
<path d="M132.403 237.332C135.876 232.829 142.946 236.905 146.533 239.11C148.759 240.353 150.683 242.071 152.169 244.142C152.948 245.358 153.285 246.804 153.126 248.239C153.131 249.645 152.734 251.023 151.982 252.211C151.337 252.97 152.439 254.082 153.084 253.313C153.988 252.062 154.514 250.579 154.602 249.039C154.864 247.548 154.716 246.014 154.176 244.6C152.98 241.73 150.183 239.577 147.636 237.955C143.092 235.086 135.283 231.052 131.062 236.552C130.448 237.342 131.8 238.122 132.403 237.332Z" fill="#565A6A"/>
<path d="M137.779 240.243C138.59 239.609 140.056 240.472 140.794 240.836C141.982 241.429 143.129 242.103 144.225 242.853C145.278 243.454 146.221 244.231 147.012 245.151C147.75 246.19 147.563 247.573 147.428 248.758C147.428 248.965 147.51 249.164 147.656 249.31C147.802 249.456 148.001 249.538 148.207 249.538C148.414 249.538 148.613 249.456 148.759 249.31C148.905 249.164 148.987 248.965 148.987 248.758C149.315 247.269 149.093 245.71 148.363 244.371C147.385 243.171 146.194 242.163 144.849 241.397C143.535 240.501 142.143 239.725 140.69 239.078C139.349 238.486 137.893 238.174 136.656 239.141C136.51 239.287 136.428 239.485 136.428 239.692C136.428 239.898 136.51 240.097 136.656 240.243C136.803 240.386 137.001 240.467 137.207 240.467C137.413 240.467 137.61 240.386 137.758 240.243H137.779Z" fill="#565A6A"/>
<path d="M136.302 245.4C137.913 247.353 140.054 248.798 142.468 249.559C142.668 249.615 142.882 249.588 143.062 249.486C143.242 249.383 143.375 249.213 143.43 249.014C143.485 248.814 143.458 248.6 143.356 248.42C143.254 248.239 143.084 248.107 142.884 248.052C140.738 247.369 138.835 246.08 137.404 244.34C137.258 244.194 137.06 244.112 136.853 244.112C136.647 244.112 136.449 244.194 136.302 244.34C136.159 244.487 136.078 244.685 136.078 244.891C136.078 245.097 136.159 245.294 136.302 245.442V245.4Z" fill="#565A6A"/>
<path d="M129.305 237.508C131.795 238.179 134.151 239.273 136.271 240.742C137.966 241.927 140.004 244.121 138.943 246.378C138.517 247.272 139.858 248.072 140.284 247.157C141.595 244.392 139.941 241.615 137.747 239.879C135.349 238.07 132.624 236.742 129.721 235.97C129.521 235.914 129.307 235.941 129.127 236.043C128.946 236.146 128.814 236.316 128.759 236.515C128.704 236.715 128.73 236.929 128.832 237.109C128.935 237.29 129.105 237.422 129.305 237.477V237.508Z" fill="#565A6A"/>
<path d="M130.864 241.407H130.396C130.208 241.408 130.027 241.477 129.885 241.601C129.744 241.725 129.652 241.897 129.627 242.083C129.604 242.27 129.648 242.459 129.751 242.617C129.853 242.775 130.008 242.891 130.188 242.946C132.378 243.782 134.493 244.801 136.51 245.993C136.687 246.083 136.892 246.102 137.083 246.047C137.273 245.991 137.436 245.865 137.536 245.694C137.637 245.523 137.669 245.319 137.625 245.126C137.581 244.932 137.465 244.762 137.3 244.651C135.162 243.396 132.922 242.321 130.604 241.438L130.396 242.967H130.864C131.071 242.967 131.269 242.885 131.416 242.739C131.562 242.592 131.644 242.394 131.644 242.187C131.644 241.98 131.562 241.782 131.416 241.636C131.269 241.489 131.071 241.407 130.864 241.407Z" fill="#565A6A"/>
<path d="M147.656 244.61C146.823 244.52 145.98 244.633 145.2 244.939C144.42 245.245 143.725 245.735 143.175 246.367C142.639 247.122 142.338 248.018 142.31 248.943C142.282 249.868 142.529 250.781 143.019 251.566C144.049 253.338 145.378 254.918 146.949 256.234C148.561 257.721 150.308 259.052 152.044 260.393C152.845 261.007 153.625 259.655 152.834 259.052C150.1 256.973 147.157 254.81 145.119 252.003C144.267 250.848 143.373 249.174 144.142 247.75C144.524 247.19 145.057 246.749 145.679 246.479C146.3 246.208 146.986 246.119 147.656 246.222C148.696 246.294 148.696 244.735 147.656 244.662V244.61Z" fill="#565A6A"/>
<path d="M146.627 248.364C148.359 250.932 150.535 253.172 153.053 254.976C153.203 255.118 153.402 255.197 153.609 255.197C153.816 255.197 154.015 255.118 154.165 254.976C154.309 254.829 154.389 254.631 154.389 254.425C154.389 254.22 154.309 254.022 154.165 253.874C151.878 252.024 149.528 250.131 148.01 247.573C147.899 247.409 147.729 247.293 147.535 247.249C147.342 247.205 147.138 247.237 146.967 247.337C146.796 247.438 146.67 247.601 146.614 247.791C146.559 247.982 146.578 248.187 146.668 248.364H146.627Z" fill="#565A6A"/>
<path d="M153.458 246.294C157.617 249.216 161.932 252.325 164.22 256.994C164.667 257.888 166.008 257.098 165.571 256.203C163.159 251.296 158.594 248.01 154.248 244.943C153.427 244.36 152.647 245.712 153.458 246.294Z" fill="#565A6A"/>
<path d="M157.836 280.492C157.688 280.712 157.495 280.897 157.269 281.035C157.043 281.173 156.79 281.26 156.527 281.291C156.264 281.322 155.998 281.295 155.746 281.212C155.495 281.13 155.264 280.994 155.07 280.814C154.678 280.196 154.505 279.463 154.581 278.734C154.581 276.769 154.706 274.804 154.727 272.839C154.727 268.327 154.519 263.824 154.54 259.322C154.54 257.596 153.833 251.67 156.941 252.252C158.345 252.512 158.418 254.03 158.522 255.194C158.626 256.359 158.688 257.555 158.73 258.74C158.803 261.038 158.73 263.336 158.73 265.634C158.678 268.171 158.647 270.708 158.615 273.245C158.615 274.513 158.615 275.792 158.522 277.061C158.592 278.322 158.312 279.578 157.711 280.689C157.149 281.521 158.501 282.311 159.052 281.479C160.445 279.4 160.092 276.395 160.175 274.014C160.175 270.957 160.248 267.911 160.3 264.864C160.352 261.818 160.362 258.74 160.123 255.694C159.957 253.614 159.707 251.181 157.253 250.703C153.188 249.902 153.032 254.862 153.011 257.492C152.949 263.377 153.261 269.242 153.126 275.168C153.126 277.133 152.512 279.899 153.697 281.667C154.883 283.434 157.596 283.226 158.896 281.667C159.582 280.835 158.491 279.733 157.836 280.492Z" fill="#565A6A"/>
<path d="M144.797 317.466C144.594 317.624 144.362 317.739 144.115 317.807C143.867 317.874 143.608 317.891 143.353 317.857C143.099 317.823 142.854 317.739 142.632 317.609C142.41 317.48 142.217 317.307 142.062 317.102C141.803 316.382 141.825 315.591 142.125 314.887C142.634 313.016 143.237 311.165 143.747 309.293C144.787 305.301 145.629 301.235 146.71 297.243C147.157 295.621 148.051 289.829 150.932 291.721C152.065 292.46 151.618 294.05 151.431 295.142C151.244 296.234 151.025 297.222 150.776 298.261C150.308 300.279 149.736 302.275 149.185 304.261C148.547 306.514 147.92 308.773 147.303 311.04C146.731 313.12 146.336 316.124 144.641 317.559C143.882 318.214 144.984 319.306 145.743 318.661C147.552 317.123 147.999 314.326 148.613 312.142C149.372 309.418 150.121 306.684 150.9 303.959C151.68 301.235 152.387 298.542 152.886 295.776C153.261 293.697 153.677 291.243 151.379 290.162C150.699 289.842 149.932 289.756 149.199 289.918C148.465 290.08 147.806 290.48 147.324 291.056C146.477 292.306 145.913 293.725 145.67 295.215C144.236 300.476 143.144 305.82 141.636 311.071C141.106 312.922 139.785 315.501 140.513 317.466C141.241 319.431 143.892 319.93 145.587 318.838C146.429 318.277 145.65 316.925 144.797 317.466Z" fill="#565A6A"/>
<path d="M145.213 299.27C144.163 298.794 143.234 298.088 142.495 297.204C141.755 296.321 141.223 295.282 140.939 294.165C140.243 291.378 141.522 288.644 142.759 286.211C143.9 283.932 145.254 281.767 146.804 279.743C147.59 278.723 148.438 277.751 149.341 276.832C150.318 275.844 151.711 274.16 153.25 274.659C154.207 274.971 154.612 273.474 153.656 273.162C150.765 272.216 148.072 275.772 146.461 277.685C144.415 280.182 142.67 282.911 141.262 285.816C139.9 288.55 138.725 291.493 139.494 294.57C139.824 295.885 140.441 297.11 141.303 298.157C142.164 299.204 143.248 300.045 144.475 300.622C145.379 301.048 146.169 299.696 145.265 299.27H145.213Z" fill="#565A6A"/>
<path d="M159.406 275.688C161.225 277.435 162.92 279.317 162.431 282.031C162.026 284.308 160.653 286.408 159.52 288.373C158.387 290.338 157.118 292.345 155.798 294.258C154.477 296.171 153.177 298.355 151.327 299.8C150.536 300.414 151.649 301.516 152.429 300.902C154.425 299.343 155.87 296.93 157.285 294.861C158.9 292.491 160.397 290.065 161.776 287.583C162.951 285.452 164.261 283.081 164.074 280.554C163.887 278.028 162.213 276.25 160.508 274.617C159.79 273.921 158.688 275.023 159.406 275.719V275.688Z" fill="#565A6A"/>
<path d="M146.471 293.77C145.286 292.865 146.169 290.973 146.637 289.943C147.215 288.679 147.878 287.456 148.623 286.283C150.1 283.97 151.888 281.871 153.936 280.045C154.675 279.369 153.572 278.267 152.834 278.943C150.366 281.15 148.26 283.733 146.596 286.595C145.244 288.945 142.811 292.969 145.67 295.132C146.46 295.745 147.24 294.383 146.45 293.79L146.471 293.77Z" fill="#565A6A"/>
<path d="M156.837 282.114C156.789 283.052 156.518 283.964 156.047 284.776C155.631 285.628 155.184 286.46 154.727 287.292C153.791 288.987 152.782 290.63 151.701 292.241C151.15 293.073 152.502 293.863 153.053 293.032C154.196 291.306 155.267 289.548 156.266 287.729C157.264 285.909 158.407 284.142 158.345 282.114C158.345 281.907 158.263 281.709 158.117 281.563C157.97 281.416 157.772 281.334 157.565 281.334C157.358 281.334 157.16 281.416 157.014 281.563C156.868 281.709 156.785 281.907 156.785 282.114H156.837Z" fill="#565A6A"/>
<path d="M143.487 303.013C142.042 303.814 140.576 304.594 139.151 305.436C137.827 306.107 136.79 307.233 136.229 308.607C136.028 309.285 136.019 310.005 136.203 310.688C136.386 311.371 136.755 311.989 137.269 312.475C138.356 313.473 139.757 314.062 141.231 314.139C141.437 314.136 141.633 314.053 141.779 313.907C141.925 313.761 142.008 313.565 142.01 313.359C142.003 313.154 141.918 312.96 141.773 312.816C141.629 312.671 141.435 312.587 141.231 312.579C140.117 312.515 139.064 312.05 138.267 311.269C137.924 310.904 137.712 310.435 137.665 309.936C137.618 309.437 137.739 308.936 138.007 308.513C138.714 307.577 139.648 306.836 140.721 306.361L144.308 304.354C144.473 304.243 144.589 304.074 144.633 303.88C144.677 303.686 144.645 303.483 144.544 303.312C144.443 303.141 144.281 303.015 144.09 302.959C143.9 302.904 143.695 302.923 143.518 303.013H143.487Z" fill="#565A6A"/>
<path d="M148.301 314.679C150.124 313.847 151.919 312.964 153.687 312.028C155.285 311.235 156.812 310.306 158.251 309.252C159.55 308.316 160.521 306.996 161.027 305.477C161.265 304.749 161.33 303.974 161.216 303.216C161.103 302.458 160.814 301.737 160.372 301.11C160.264 300.944 160.098 300.824 159.906 300.772C159.714 300.721 159.51 300.741 159.333 300.83C159.163 300.935 159.04 301.101 158.988 301.294C158.936 301.487 158.959 301.693 159.052 301.869C159.434 302.394 159.665 303.013 159.722 303.66C159.779 304.306 159.659 304.956 159.374 305.54C158.738 306.809 157.744 307.864 156.515 308.576C153.663 310.364 150.677 311.928 147.583 313.255C146.679 313.671 147.469 315.012 148.374 314.606L148.301 314.679Z" fill="#565A6A"/>
<path d="M150.765 306.548C151.606 305.76 152.555 305.094 153.583 304.573L156.921 302.493C157.773 301.973 156.993 300.622 156.13 301.142L152.689 303.221C151.586 303.8 150.568 304.528 149.663 305.384C149.522 305.533 149.443 305.73 149.443 305.935C149.443 306.14 149.522 306.337 149.663 306.486C149.809 306.632 150.007 306.714 150.214 306.714C150.421 306.714 150.619 306.632 150.765 306.486V306.548Z" fill="#565A6A"/>
<path d="M161.256 292.116C161.34 295.391 160.84 298.655 159.78 301.755C159.447 302.701 160.955 303.117 161.277 302.171C162.378 298.936 162.899 295.532 162.816 292.116C162.816 291.909 162.734 291.711 162.587 291.565C162.441 291.419 162.243 291.336 162.036 291.336C161.829 291.336 161.631 291.419 161.485 291.565C161.338 291.711 161.256 291.909 161.256 292.116Z" fill="#565A6A"/>
<path d="M153.053 298.469C152.867 300.251 152.519 302.012 152.013 303.731C151.961 303.932 151.99 304.145 152.093 304.326C152.196 304.506 152.365 304.639 152.564 304.698C152.764 304.749 152.976 304.72 153.154 304.617C153.333 304.514 153.464 304.345 153.52 304.147C154.067 302.291 154.45 300.392 154.664 298.469C154.666 298.367 154.646 298.265 154.608 298.169C154.569 298.074 154.512 297.988 154.439 297.915C154.366 297.842 154.28 297.785 154.184 297.746C154.089 297.707 153.987 297.688 153.884 297.69C153.679 297.695 153.484 297.779 153.339 297.924C153.194 298.069 153.11 298.264 153.105 298.469H153.053Z" fill="#565A6A"/>
<path d="M90.2515 20.0019C91.9048 16.9437 94.2168 14.2908 97.0203 12.2349C99.7955 10.2633 102.939 8.87013 106.264 8.13831C106.669 8.04474 106.492 7.46247 106.097 7.52486C99.2142 8.65819 93.0172 13.6386 89.8148 19.7524C89.6692 20.0331 90.0955 20.2827 90.2515 20.0019Z" fill="#565A6A"/>
<path d="M115.808 7.93059C119.626 8.85917 123.103 10.8469 125.84 13.665C128.577 16.4831 130.463 20.017 131.28 23.8596C133.006 31.8034 130.531 41.3483 123.648 46.1832C123.315 46.4119 123.648 46.963 123.971 46.7239C135.242 39.1129 135.044 20.73 125.197 12.1C122.568 9.77427 119.373 8.18202 115.933 7.4835C115.642 7.42111 115.517 7.86821 115.808 7.93059Z" fill="#565A6A"/>
<path d="M95.2109 45.3824C98.3152 48.3757 102.135 50.5236 106.305 51.621C110.329 52.5672 115.351 52.4112 118.855 49.9782C118.917 49.9349 118.961 49.8699 118.977 49.7961C118.993 49.7222 118.981 49.6449 118.943 49.5794C118.905 49.514 118.844 49.4652 118.772 49.4428C118.7 49.4203 118.622 49.4259 118.553 49.4583C116.583 50.3976 114.478 51.0254 112.315 51.3194C110.225 51.5234 108.116 51.3722 106.076 50.8724C102.144 49.8229 98.528 47.8275 95.5436 45.0601C95.2941 44.8314 94.9198 45.1953 95.1693 45.424L95.2109 45.3824Z" fill="#565A6A"/>
<path d="M99.9004 67.8099C99.6162 76.6132 99.3805 85.4234 99.1934 94.2405C98.9854 103.047 98.6111 111.916 98.6527 120.681C98.6527 120.745 98.6779 120.806 98.7228 120.851C98.7676 120.895 98.8284 120.921 98.8919 120.921C98.9553 120.921 99.0161 120.895 99.061 120.851C99.1058 120.806 99.131 120.745 99.131 120.681C99.5573 111.885 99.5885 103.006 99.786 94.2405C99.9836 85.4754 100.15 76.6271 100.264 67.8099C100.255 67.7691 100.231 67.7327 100.198 67.7067C100.165 67.6807 100.124 67.6666 100.082 67.6666C100.04 67.6666 99.9996 67.6807 99.9666 67.7067C99.9336 67.7327 99.9103 67.7691 99.9004 67.8099Z" fill="#565A6A"/>
<path d="M121.777 119.205C121.506 129.218 121.194 139.325 121.631 149.358C121.631 149.438 121.663 149.515 121.719 149.571C121.776 149.628 121.853 149.66 121.933 149.66C122.013 149.66 122.089 149.628 122.146 149.571C122.202 149.515 122.234 149.438 122.234 149.358C122.39 139.325 122.099 129.27 122.161 119.205C122.151 119.162 122.127 119.123 122.092 119.095C122.057 119.068 122.014 119.053 121.969 119.053C121.925 119.053 121.881 119.068 121.846 119.095C121.811 119.123 121.787 119.162 121.777 119.205Z" fill="#565A6A"/>
<path d="M122.993 168.5C122.463 181.881 122.266 195.346 122.796 208.728C122.796 208.805 122.827 208.879 122.881 208.934C122.936 208.988 123.01 209.019 123.087 209.019C123.164 209.019 123.238 208.988 123.293 208.934C123.347 208.879 123.378 208.805 123.378 208.728C123.253 195.315 123.16 181.923 123.513 168.5C123.513 168.156 123.004 168.167 122.993 168.5Z" fill="#565A6A"/>
<path d="M70.8079 263.721C76.1315 265.8 82.0581 263.898 86.1547 260.144C90.7088 255.985 93.1003 249.684 94.1296 243.726C94.2128 243.279 93.5474 243.082 93.4434 243.539C92.0813 249.175 90.3241 254.883 86.0819 259.083C82.2348 262.92 76.2354 265.083 70.9431 263.243C70.6208 263.128 70.496 263.627 70.8079 263.742V263.721Z" fill="#565A6A"/>
<path d="M97.8 296.109C99.7547 294.986 101.668 293.791 103.508 292.491C105.346 291.259 107.103 289.911 108.769 288.457C108.998 288.259 108.697 287.843 108.447 288.03C106.68 289.382 104.964 290.786 103.144 292.065C101.325 293.343 99.4532 294.529 97.5401 295.652C97.4794 295.686 97.4349 295.743 97.4164 295.811C97.3979 295.878 97.4068 295.95 97.4413 296.01C97.4757 296.071 97.5329 296.116 97.6002 296.134C97.6674 296.153 97.7393 296.144 97.8 296.109Z" fill="#565A6A"/>
<path d="M95.5125 305.498C98.1355 306.476 100.662 307.694 103.061 309.137C104.215 309.834 105.338 310.582 106.42 311.383C107.501 312.184 108.572 313.14 109.674 313.993C109.955 314.201 110.267 313.754 110.038 313.525C108.007 311.579 105.732 309.904 103.269 308.544C100.846 307.123 98.2902 305.943 95.6373 305.02C95.3358 304.916 95.211 305.394 95.5125 305.498Z" fill="#565A6A"/>
<path d="M110.62 313.993C114.568 311.11 118.741 308.547 123.097 306.33C123.43 306.153 123.097 305.675 122.806 305.831C118.404 307.974 114.224 310.548 110.329 313.515C110.059 313.723 110.329 314.201 110.61 313.993H110.62Z" fill="#565A6A"/>
<path d="M212.859 209.31C211.3 212.845 209.685 216.356 208.014 219.843C206.33 223.326 204.448 226.695 202.67 230.126C202.514 230.427 202.951 230.687 203.117 230.396C205.082 226.996 206.798 223.43 208.524 219.905C210.25 216.38 211.778 213.001 213.244 209.508C213.338 209.289 212.963 209.133 212.859 209.352V209.31Z" fill="#565A6A"/>
<path d="M164.771 261.88C168.497 260.597 172.077 258.921 175.449 256.879C178.871 254.919 182.017 252.513 184.807 249.726C185.077 249.445 184.682 249.071 184.391 249.31C181.465 251.869 178.363 254.217 175.106 256.338C171.781 258.363 168.263 260.052 164.604 261.381C164.303 261.496 164.427 261.995 164.75 261.88H164.771Z" fill="#565A6A"/>
<path d="M18.446 251.077C18.3143 248.214 17.8927 245.371 17.1879 242.593C17.1255 242.343 16.7512 242.447 16.8032 242.707C17.4093 245.464 17.809 248.262 17.9989 251.077C17.9989 251.358 18.4564 251.358 18.446 251.077Z" fill="#565A6A"/>
<path d="M203.897 241.543C203.523 242.796 203.221 244.07 202.992 245.358C202.742 246.616 202.596 247.893 202.555 249.174C202.555 249.455 202.95 249.434 202.982 249.174C203.138 247.895 203.242 246.606 203.449 245.338C203.66 244.094 203.934 242.862 204.271 241.646C204.275 241.6 204.263 241.555 204.236 241.517C204.21 241.479 204.171 241.451 204.127 241.439C204.082 241.426 204.035 241.43 203.993 241.449C203.951 241.468 203.917 241.501 203.897 241.543Z" fill="#565A6A"/>
<path d="M33.0752 268.088C42.8366 279.351 55.037 288.241 68.7492 294.082C72.5369 295.707 76.4312 297.073 80.4049 298.168C80.478 298.187 80.5557 298.177 80.621 298.139C80.6864 298.101 80.7339 298.038 80.7532 297.965C80.7725 297.892 80.762 297.814 80.724 297.749C80.686 297.684 80.6235 297.636 80.5505 297.617C66.4129 293.432 53.3394 286.258 42.2147 276.582C39.0845 273.842 36.1195 270.919 33.3352 267.828C33.1792 267.651 32.9193 267.911 33.0752 268.088Z" fill="#565A6A"/>
<path d="M137.508 262.608C140.037 264.118 142.888 265.005 145.826 265.197C147.247 265.287 148.673 265.221 150.079 264.999C151.586 264.83 153.05 264.393 154.404 263.71C154.477 263.673 154.533 263.61 154.561 263.534C154.589 263.457 154.587 263.373 154.556 263.297C154.524 263.222 154.465 263.162 154.391 263.128C154.316 263.095 154.232 263.091 154.155 263.117C152.845 263.481 151.628 264.012 150.287 264.261C148.861 264.522 147.409 264.613 145.961 264.531C143.089 264.384 140.291 263.568 137.789 262.15C137.728 262.116 137.656 262.107 137.589 262.126C137.522 262.144 137.465 262.189 137.43 262.249C137.396 262.31 137.387 262.382 137.405 262.449C137.424 262.516 137.468 262.573 137.529 262.608H137.508Z" fill="#565A6A"/>
<path d="M7.73636 210.693C10.0048 217.101 13.0348 223.214 16.7614 228.899C16.7959 228.957 16.852 228.999 16.9173 229.016C16.9826 229.032 17.0518 229.022 17.1098 228.988C17.1677 228.953 17.2095 228.897 17.2261 228.832C17.2427 228.767 17.2326 228.697 17.1981 228.639C13.6939 222.875 10.6651 216.835 8.14187 210.579C8.04829 210.329 7.64279 210.433 7.73636 210.693Z" fill="#565A6A"/>
<path d="M125.291 85.8395L162.348 80.1936C162.847 80.1208 162.639 79.3722 162.14 79.445L125.083 85.0908C124.595 85.1636 124.803 85.9226 125.291 85.8395Z" fill="#565A6A"/>
<path d="M54.3695 78.7272L74.4264 79.2679C74.5189 79.2527 74.6029 79.2052 74.6636 79.1338C74.7243 79.0623 74.7576 78.9717 74.7576 78.8779C74.7576 78.7842 74.7243 78.6936 74.6636 78.6222C74.6029 78.5507 74.5189 78.5032 74.4264 78.488L54.3695 77.9474C54.277 77.9625 54.1929 78.01 54.1323 78.0815C54.0716 78.1529 54.0383 78.2436 54.0383 78.3373C54.0383 78.431 54.0716 78.5217 54.1323 78.5931C54.1929 78.6645 54.277 78.712 54.3695 78.7272Z" fill="#565A6A"/>
<path d="M103.966 53.7526C107.127 55.1184 110.637 55.4531 113.999 54.7092C114.488 54.6052 114.28 53.8566 113.791 53.9605C110.633 54.6605 107.334 54.3514 104.361 53.0767C103.903 52.8792 103.508 53.555 103.966 53.7526Z" fill="#565A6A"/>
<path d="M122.796 212.897C122.952 216.599 123.118 220.3 123.316 224.002C123.316 224.283 123.773 224.293 123.763 224.002C123.617 220.3 123.43 216.599 123.243 212.897C123.243 212.606 122.775 212.606 122.796 212.897Z" fill="#565A6A"/>
<path d="M98.6423 125.121C98.6423 128.407 98.476 131.682 98.2992 134.957C98.2992 135.238 98.7151 135.238 98.7359 134.957C98.9751 131.682 99.0374 128.397 99.027 125.121C99.0169 125.078 98.9924 125.039 98.9574 125.012C98.9225 124.984 98.8793 124.969 98.8347 124.969C98.7901 124.969 98.7469 124.984 98.7119 125.012C98.677 125.039 98.6525 125.078 98.6423 125.121Z" fill="#565A6A"/>
<path d="M114.051 241.085C114.166 249.622 114.228 258.189 114.623 266.715C114.635 266.771 114.666 266.822 114.71 266.858C114.755 266.894 114.81 266.914 114.868 266.914C114.925 266.914 114.981 266.894 115.025 266.858C115.07 266.822 115.1 266.771 115.112 266.715C115.112 258.179 114.748 249.611 114.457 241.085C114.446 241.039 114.421 240.998 114.384 240.969C114.347 240.939 114.301 240.923 114.254 240.923C114.207 240.923 114.161 240.939 114.124 240.969C114.088 240.998 114.062 241.039 114.051 241.085Z" fill="#565A6A"/>
<path d="M114.706 269.543C114.644 271.238 114.613 272.933 114.623 274.628C114.634 276.322 114.623 278.038 114.779 279.712C114.779 279.778 114.806 279.842 114.852 279.888C114.899 279.935 114.963 279.961 115.029 279.961C115.095 279.961 115.158 279.935 115.205 279.888C115.252 279.842 115.278 279.778 115.278 279.712C115.278 278.028 115.164 276.322 115.143 274.628C115.122 272.933 115.143 271.238 115.143 269.543C115.132 269.492 115.104 269.446 115.063 269.414C115.022 269.381 114.972 269.363 114.92 269.363C114.867 269.363 114.817 269.381 114.776 269.414C114.735 269.446 114.707 269.492 114.696 269.543H114.706Z" fill="#565A6A"/>
</svg>
