<svg width="55" height="91" viewBox="0 0 55 91" fill="none" xmlns="http://www.w3.org/2000/svg">
<path d="M29.8935 48.0562C30.8929 49.1032 32.4634 47.5089 31.4878 46.4857C30.5638 45.5716 29.4273 44.9011 28.1803 44.5345V43.3447C28.1803 43.0481 28.0625 42.7636 27.8527 42.5539C27.643 42.3442 27.3585 42.2263 27.0619 42.2263C26.7653 42.2263 26.4808 42.3442 26.2711 42.5539C26.0614 42.7636 25.9435 43.0481 25.9435 43.3447V44.2489C25.3195 44.2454 24.6996 44.3501 24.1113 44.5583C23.416 44.7759 22.7915 45.1751 22.3021 45.7147C21.8126 46.2543 21.4761 46.9147 21.3272 47.6279C21.1921 48.3852 21.2824 49.1656 21.587 49.8721C21.8916 50.5786 22.397 51.18 23.0405 51.6017C23.9234 52.1607 24.9113 52.5332 25.9435 52.6963V56.3845H25.5628L25.1345 56.1704C24.6716 55.9465 24.233 55.6753 23.8257 55.3613L23.6592 55.2424L23.3736 54.9568C23.2885 54.8836 23.2089 54.804 23.1357 54.7189C23.1357 54.7189 22.8501 54.3619 23.0167 54.5999C22.8676 54.3451 22.6239 54.1597 22.3386 54.0839C22.0533 54.0081 21.7497 54.0482 21.4938 54.1954C21.2391 54.3445 21.0536 54.5882 20.9778 54.8735C20.902 55.1588 20.9421 55.4624 21.0893 55.7183C22.3454 57.2562 24.051 58.3628 25.9673 58.883V60.0728C25.9673 60.3694 26.0852 60.6539 26.2949 60.8636C26.5046 61.0734 26.7891 61.1912 27.0857 61.1912C27.3823 61.1912 27.6668 61.0734 27.8765 60.8636C28.0863 60.6539 28.2041 60.3694 28.2041 60.0728V59.0496C28.9736 59.0722 29.7365 58.901 30.4225 58.5518C31.1086 58.2025 31.6958 57.6864 32.1303 57.0508C32.5207 56.4761 32.7545 55.8095 32.8088 55.1168C32.863 54.4241 32.7358 53.7293 32.4396 53.1008C32.0248 52.4613 31.4625 51.9309 30.7999 51.5541C30.1374 51.1773 29.394 50.9651 28.6324 50.9354H28.1803V46.9378C28.8227 47.1878 29.4061 47.5687 29.8935 48.0562ZM30.3932 53.9812C30.5165 54.1946 30.5813 54.4367 30.5813 54.6832C30.5813 54.9296 30.5165 55.1717 30.3932 55.3851C30.3932 55.5517 30.3932 55.3851 30.3932 55.5517C30.3467 55.6518 30.2909 55.7474 30.2267 55.8372V55.9562L29.9411 56.2656L29.6794 56.4083C29.6006 56.4212 29.5202 56.4212 29.4414 56.4083H28.3469V53.1008C29.1157 53.1253 29.8468 53.4399 30.3932 53.9812ZM24.7538 50.0074C24.2742 49.8079 23.873 49.4569 23.6116 49.008C23.5584 48.773 23.5584 48.5291 23.6116 48.2941C23.5735 48.0897 23.5735 47.8799 23.6116 47.6755C23.7273 47.4406 23.8908 47.2325 24.0916 47.0645C24.2923 46.8965 24.526 46.7723 24.7776 46.6999C25.1535 46.5713 25.5464 46.4991 25.9435 46.4857V50.4119C25.5358 50.3123 25.1377 50.177 24.7538 50.0074Z" fill="#565A6A"/>
<path d="M37.7936 47.6041C38.5151 49.487 38.7207 51.5284 38.3895 53.5174C38.0582 55.5063 37.2019 57.3708 35.9092 58.9183C34.6164 60.4657 32.934 61.64 31.0357 62.3198C29.1374 62.9997 27.092 63.1604 25.1108 62.7855C23.6084 62.5238 22.1744 61.9614 20.8947 61.1321C19.6149 60.3028 18.5159 59.2236 17.6633 57.9592C16.8108 56.6948 16.2223 55.2713 15.9332 53.774C15.6442 52.2767 15.6604 50.7365 15.9811 49.2456C16.3017 47.7547 16.92 46.3439 17.7991 45.0978C18.6781 43.8517 19.7998 42.796 21.0967 41.9939C22.3937 41.1918 23.8392 40.6598 25.3468 40.4299C26.8543 40.2 28.3927 40.2768 29.8698 40.6559C31.2737 40.989 31.8686 38.8236 30.4647 38.5143C27.5348 37.766 24.4387 38.0202 21.67 39.2361C18.9013 40.4521 16.6193 42.5599 15.1879 45.2237C13.7565 47.8874 13.258 50.9536 13.7718 53.9336C14.2857 56.9135 15.7824 59.6357 18.0232 61.6662C20.2641 63.6966 23.1203 64.9184 26.1363 65.1369C29.1524 65.3554 32.1547 64.5579 34.6648 62.8715C37.1749 61.1852 39.0483 58.7071 39.9862 55.8323C40.9241 52.9575 40.8727 49.8514 39.84 47.0092C39.4831 45.6767 37.3177 46.2478 37.7936 47.6041Z" fill="#565A6A"/>
<path d="M20.78 20.8582C20.1852 21.4055 19.6141 21.9528 19.0906 22.5239C18.115 23.5471 19.6855 25.1413 20.6849 24.0943C21.2797 23.4757 21.9222 22.857 22.6123 22.2621C23.8535 23.1809 25.247 23.8737 26.7289 24.3085C28.3377 24.7395 30.035 24.7116 31.6288 24.228C33.2226 23.7444 34.6492 22.8244 35.7473 21.572C35.9551 21.3588 36.0714 21.0727 36.0714 20.7749C36.0714 20.4771 35.9551 20.1911 35.7473 19.9778C34.5752 18.9332 33.1865 18.1611 31.6808 17.7168C30.175 17.2724 28.5895 17.167 27.0382 17.4079C25.4186 17.7383 23.8914 18.4207 22.5647 19.4067C21.7794 18.7642 21.018 18.0741 20.3041 17.4079C19.5903 16.7416 17.7104 17.979 18.7336 18.9784C19.3761 19.6208 20.0662 20.2395 20.78 20.8582ZM27.181 19.7874C28.2033 19.5807 29.2567 19.5816 30.2786 19.79C31.3006 19.9985 32.2702 20.4103 33.1298 21.001C32.2637 21.6963 31.2391 22.1667 30.1472 22.3701C29.0553 22.5736 27.93 22.5038 26.8716 22.1669C26.0346 21.865 25.2359 21.4657 24.4921 20.9772C25.3233 20.4473 26.2298 20.0462 27.181 19.7874Z" fill="#565A6A"/>
<path d="M28.799 79.5374C28.1146 79.3018 27.3756 79.2757 26.6762 79.4622C25.9769 79.6486 25.349 80.0393 24.8728 80.5844C24.4078 81.1594 24.1304 81.8632 24.0777 82.6009C24.0251 83.3385 24.1998 84.0746 24.5784 84.7099C24.957 85.3451 25.5212 85.8491 26.195 86.1538C26.8688 86.4586 27.6199 86.5495 28.3469 86.4142C29.1274 86.2581 29.8347 85.8489 30.359 85.25C30.8833 84.6511 31.1954 83.8959 31.2469 83.1016C31.2985 82.3073 31.0865 81.5181 30.6439 80.8565C30.2013 80.1949 29.5529 79.6978 28.799 79.4422V79.5374ZM26.4909 82.1311C26.5623 82.0597 26.586 81.9645 26.4909 82.1311V82.1311ZM26.4909 83.8443C26.4909 83.8443 26.586 84.0347 26.5147 83.8443H26.4909ZM27.062 84.2488C26.9192 84.2012 26.9906 84.2012 27.0857 84.2488H27.062ZM28.8704 83.5112L28.68 83.8205L28.4659 83.9633H27.2999C27.1067 83.9481 26.9124 83.9724 26.7288 84.0347C26.6561 83.9416 26.5766 83.8541 26.4909 83.7729C26.4909 83.7729 26.4909 83.6064 26.4909 83.5112V83.2018C26.4797 83.1549 26.4797 83.106 26.4909 83.0591C26.4806 82.9642 26.4806 82.8684 26.4909 82.7735V82.607L26.6812 82.3928C26.7895 82.3381 26.893 82.2744 26.9906 82.2024H28.2279L28.4659 82.4166V82.7259C28.4581 82.8368 28.4581 82.9482 28.4659 83.0591V83.6777L28.8704 83.5112Z" fill="#565A6A"/>
<path d="M44.8608 6.91416C41.696 6.91416 38.5074 6.91416 35.3427 6.91416C27.0857 6.91416 18.686 6.7238 10.5004 6.91416C9.92635 6.88973 9.35385 6.99006 8.82233 7.20825C8.29082 7.42644 7.81294 7.75729 7.42164 8.178C7.03034 8.5987 6.73492 9.09926 6.55575 9.64516C6.37658 10.1911 6.31791 10.7693 6.3838 11.3401V70.8283C6.3838 73.2078 6.26482 75.9681 9.21544 76.6343C11.6434 76.8963 14.0926 76.8963 16.5206 76.6343H45.1939C45.3502 76.6727 45.5135 76.6727 45.6698 76.6343C48.5966 76.087 48.8108 73.5172 48.8108 70.9711V11.5542C48.8108 9.03194 47.6924 6.98555 44.8608 6.91416ZM46.574 15.0284V72.137C46.574 73.1126 46.574 74.1834 45.1939 74.3262H12.9037C11.1667 74.3262 8.83471 74.8259 8.62056 72.5415C8.4064 70.2572 8.62056 68.3774 8.62056 66.3548V15.9802C8.5016 14.2213 8.5016 12.4565 8.62056 10.6976C8.9299 8.46086 12.285 9.15092 13.9269 9.15092H39.84C41.4105 9.15092 46.1933 8.29429 46.574 10.5548C46.6983 12.0434 46.6983 13.5398 46.574 15.0284Z" fill="#565A6A"/>
<path d="M49.4057 1.39362C46.4551 0.322835 42.4575 0.917717 39.4117 0.917717C29.3463 0.917717 19.2571 0.917717 9.19168 0.917717C8.0785 0.852686 6.9638 1.01645 5.91635 1.3989C4.86891 1.78135 3.91094 2.37438 3.10156 3.1414C2.29218 3.90841 1.64856 4.83314 1.2104 5.85853C0.772243 6.88392 0.548846 7.98822 0.553995 9.10329C0.553995 11.4828 0.553995 13.9813 0.553995 16.4084V78.6807C0.256066 81.2255 0.608096 83.8043 1.57719 86.1762C3.95672 90.4594 8.35885 90.2452 12.5468 90.2452H46.6693C48.5458 90.2333 50.3584 89.5617 51.7896 88.348C53.2209 87.1342 54.1796 85.4557 54.4979 83.6063C54.5655 82.8146 54.5655 82.0185 54.4979 81.2268V10.6976C54.6169 6.74756 53.5699 2.91652 49.4057 1.39362ZM52.4039 82.1786C52.4104 83.7125 51.812 85.1872 50.7385 86.283C49.6651 87.3787 48.203 88.0072 46.6693 88.0322H9.19168C8.33296 88.0624 7.47761 87.9099 6.68225 87.5848C5.8869 87.2596 5.16966 86.7693 4.57803 86.1461C3.9864 85.523 3.53385 84.7813 3.25035 83.9702C2.96685 83.1591 2.85886 82.297 2.93352 81.4409V12.8629C2.6312 10.5874 2.86756 8.27259 3.62359 6.10509C5.551 2.36923 10.2387 3.13068 13.808 3.13068H44.1945C45.0036 3.13068 45.8602 3.13068 46.5741 3.13068C48.1037 3.15565 49.5622 3.78088 50.635 4.87149C51.7078 5.9621 52.3089 7.4307 52.3087 8.96052C52.5229 15.4566 52.3087 22.0241 52.3087 28.544V62.6189C52.4039 69.115 52.6181 75.6825 52.4039 82.1786Z" fill="#565A6A"/>
<path d="M43.3856 36.9676L37.6271 41.2032L36.2708 42.2264C35.8577 42.5782 35.4114 42.889 34.9382 43.1544C34.2482 43.4637 34.2244 42.2264 34.2006 41.7981C34.2006 40.3704 31.821 40.3704 31.9638 41.7981C31.91 42.4678 32.0413 43.1395 32.3435 43.7396C32.6457 44.3397 33.107 44.8452 33.6771 45.2008C35.081 45.8909 36.2946 44.9628 37.3891 44.1538L44.5277 38.8237C44.7778 38.6703 44.9593 38.4267 45.0346 38.1431C45.11 37.8596 45.0733 37.558 44.9322 37.3008C44.8548 37.1748 44.7527 37.0658 44.632 36.9804C44.5114 36.8949 44.3746 36.8348 44.2301 36.8037C44.0855 36.7726 43.9362 36.771 43.791 36.7992C43.6459 36.8274 43.508 36.8847 43.3856 36.9676Z" fill="#565A6A"/>
</svg>
