<svg width="85" height="67" viewBox="0 0 85 67" fill="none" xmlns="http://www.w3.org/2000/svg">
<path d="M83.3508 25.5578C81.9464 23.3204 79.5661 23.5346 77.3048 23.5346H39.4342C33.2693 23.5346 27.0805 23.3918 20.9155 23.5346C20.2559 23.5261 19.6021 23.6591 18.9982 23.9245C18.3943 24.1899 17.8542 24.5816 17.4144 25.0733C16.9746 25.565 16.6453 26.1452 16.4485 26.7749C16.2518 27.4045 16.1923 28.069 16.2739 28.7236V39.1493C16.2739 41.6249 16.2739 44.1004 16.2739 46.5759L10.1804 47.2186C8.79978 47.3614 7.34779 47.4328 6.82413 45.7666C6.82413 45.4809 6.82413 45.1715 6.70511 44.8621C6.22905 40.6489 5.8006 36.4358 5.34834 32.2227L4.42003 23.6536L25.6047 21.2733L59.6906 17.7028L67.2838 16.8697L67.7122 20.7972C67.855 22.2254 70.0925 22.2254 69.9497 20.7972C69.4498 16.0366 68.9262 11.4427 68.4263 6.77726C68.1883 4.61119 68.0216 2.42131 65.808 1.32637C64.7283 0.889212 63.5415 0.78962 62.4041 1.04074L5.49116 7.15811C4.6894 7.16634 3.90176 7.3701 3.1966 7.75172C2.49143 8.13333 1.89005 8.68128 1.44465 9.34799C0.811918 10.6931 0.668795 12.2169 1.04 13.6563C1.61127 18.8692 2.15874 24.082 2.73001 29.2949C3.30128 34.5078 3.80115 39.316 4.34862 44.3146C4.31699 45.1534 4.47377 45.9887 4.80743 46.759C5.14108 47.5293 5.64313 48.215 6.27666 48.7658C8.34752 50.2177 11.5133 49.3132 13.8222 49.0514L16.2025 48.7896C16.2025 53.0979 16.2025 57.4062 16.2025 61.667C16.3453 64.8566 18.797 66.0943 21.6058 66.0943H79.7089C80.8545 66.058 81.9425 65.5835 82.7486 64.7686C83.5546 63.9537 84.0173 62.8605 84.0411 61.7146C84.0411 60.8815 84.0411 60.0484 84.0411 59.2153V33.032C84.0411 30.9135 84.5885 27.5097 83.3508 25.5578ZM5.25313 9.4194C8.13329 8.91953 11.1563 8.80052 14.0602 8.46728L63.2848 3.15921C65.3319 2.99259 65.9508 4.37316 66.1174 6.08698L67.0457 14.6799L12.0846 20.6068L4.2534 21.4399H4.11059C3.94397 19.7023 3.75354 17.9885 3.56312 16.2509L56.5724 10.5857L64.0465 9.77644C65.4509 9.63362 65.4747 7.39614 64.0465 7.53896L3.4441 14.0848L3.25368 14.1324C2.96804 12.0853 2.87283 9.82405 5.25313 9.4194ZM18.5114 27.9381C18.7732 25.3912 21.0821 25.7721 22.915 25.7721H78.3045C78.7565 25.7483 79.2094 25.7483 79.6613 25.7721C81.2799 25.9387 81.756 27.0336 81.8036 28.4142C81.8036 31.4134 81.8036 34.4364 81.8036 37.4355V37.6022H18.5114V35.4599C18.5114 34.4602 18.5114 33.4366 18.5114 32.4131H79.4233C79.6889 32.374 79.9317 32.2407 80.1072 32.0375C80.2827 31.8343 80.3793 31.5748 80.3793 31.3063C80.3793 31.0377 80.2827 30.7782 80.1072 30.575C79.9317 30.3718 79.6889 30.2385 79.4233 30.1994H18.4162C18.4162 29.4853 18.44 28.676 18.5114 27.9381ZM79.7089 63.8569H38.744C32.8646 63.8569 26.9853 64.0235 21.1059 63.8569C18.5352 63.8569 18.5114 61.786 18.5114 59.8104V39.8158H81.8036V60.8339C81.8036 62.2621 81.5656 63.714 79.7089 63.8569Z" fill="#565A6A"/>
<path d="M73.6868 48.5282C72.6408 48.1575 71.5112 48.0904 70.4287 48.3347C69.3461 48.579 68.3548 49.1247 67.5694 49.9087C66.8646 49.2121 65.9964 48.7032 65.0441 48.4288C64.0919 48.1543 63.086 48.123 62.1185 48.3377C61.2193 48.5195 60.3756 48.9108 59.6561 49.48C58.9365 50.0491 58.3614 50.7799 57.9774 51.6132C57.5934 52.4464 57.4115 53.3584 57.4463 54.2752C57.4811 55.1919 57.7317 56.0875 58.1777 56.8892C58.6238 57.6909 59.2527 58.3761 60.0133 58.889C60.7739 59.4019 61.6448 59.7282 62.5553 59.8412C63.4657 59.9542 64.39 59.8509 65.2529 59.5395C66.1159 59.2282 66.8933 58.7176 67.5218 58.0494C68.2083 58.724 69.0459 59.2249 69.965 59.5106C70.8841 59.7963 71.8581 59.8584 72.8061 59.6918C74.03 59.4203 75.1346 58.7631 75.9571 57.8169C76.7796 56.8708 77.2768 55.6856 77.3754 54.4357C77.474 53.1859 77.1688 51.9374 76.5048 50.8739C75.8408 49.8105 74.853 48.9882 73.6868 48.5282ZM64.713 57.4067C64.4407 57.4975 64.1623 57.5691 63.8799 57.6209H62.9516C62.3763 57.5371 61.8295 57.3167 61.3568 56.9782C60.9493 56.7085 60.6076 56.3505 60.3571 55.9309C60.084 55.4806 59.9118 54.9765 59.8524 54.4532C59.7929 53.93 59.8477 53.4 60.0129 52.9C60.178 52.3999 60.4497 51.9417 60.8091 51.5567C61.1685 51.1718 61.6071 50.8695 62.0947 50.6704C62.7128 50.4193 63.3887 50.3451 64.0466 50.4562C64.7753 50.602 65.4456 50.9578 65.9746 51.4797C66.0802 51.5891 66.2109 51.6708 66.3555 51.7178C66.0491 52.4406 65.8912 53.2177 65.8912 54.0029C65.8912 54.788 66.0491 55.5651 66.3555 56.288H66.2126C65.8018 56.7385 65.287 57.0818 64.713 57.2877V57.4067ZM72.9727 57.4067C72.2535 57.6744 71.468 57.7081 70.7285 57.5029C69.989 57.2977 69.3332 56.8642 68.8548 56.2641C68.4079 55.6856 68.1441 54.9867 68.0975 54.2572C68.0508 53.5276 68.2234 52.8008 68.5929 52.17C68.9485 51.5255 69.4921 51.0047 70.1513 50.6772C70.8106 50.3497 71.554 50.2311 72.2824 50.3372C73.0664 50.4681 73.7855 50.8535 74.3286 51.4339C74.8717 52.0143 75.2085 52.7573 75.287 53.5483C75.3656 54.3393 75.1815 55.1341 74.7632 55.81C74.3449 56.4858 73.7156 57.0052 72.9727 57.2877V57.4067Z" fill="#565A6A"/>
<path d="M25.2006 48.9566H29.5803C29.8771 48.9566 30.1616 48.8387 30.3714 48.6289C30.5812 48.4191 30.6991 48.1345 30.6991 47.8378C30.6991 47.5411 30.5812 47.2566 30.3714 47.0468C30.1616 46.837 29.8771 46.7191 29.5803 46.7191H25.2006C24.9058 46.7252 24.6248 46.845 24.4162 47.0535C24.2077 47.262 24.0879 47.543 24.0818 47.8378C24.0818 47.9847 24.1108 48.1302 24.167 48.2659C24.2232 48.4017 24.3056 48.525 24.4095 48.6289C24.5134 48.7328 24.6367 48.8152 24.7725 48.8714C24.9082 48.9276 25.0537 48.9566 25.2006 48.9566Z" fill="#565A6A"/>
<path d="M32.746 48.9566H41.7197C42.0164 48.9566 42.301 48.8387 42.5108 48.6289C42.7206 48.4191 42.8384 48.1345 42.8384 47.8378C42.8384 47.5411 42.7206 47.2566 42.5108 47.0468C42.301 46.837 42.0164 46.7191 41.7197 46.7191H32.746C32.4492 46.7191 32.1647 46.837 31.9549 47.0468C31.7451 47.2566 31.6272 47.5411 31.6272 47.8378C31.6272 48.1345 31.7451 48.4191 31.9549 48.6289C32.1647 48.8387 32.4492 48.9566 32.746 48.9566Z" fill="#565A6A"/>
<path d="M44.6951 48.9566H51.9788C52.2736 48.9505 52.5547 48.8307 52.7632 48.6222C52.9717 48.4137 53.0915 48.1326 53.0976 47.8378C53.0915 47.543 52.9717 47.262 52.7632 47.0535C52.5547 46.845 52.2736 46.7252 51.9788 46.7191H44.6951C44.3984 46.7191 44.1138 46.837 43.904 47.0468C43.6942 47.2566 43.5764 47.5411 43.5764 47.8378C43.5764 48.1345 43.6942 48.4191 43.904 48.6289C44.1138 48.8387 44.3984 48.9566 44.6951 48.9566Z" fill="#565A6A"/>
<path d="M28.4613 57.7396H25.4621C25.1673 57.7457 24.8863 57.8655 24.6778 58.074C24.4693 58.2825 24.3494 58.5635 24.3434 58.8583C24.3551 59.1513 24.4767 59.4291 24.684 59.6364C24.8914 59.8437 25.1691 59.9653 25.4621 59.9771H28.4613C28.758 59.9771 29.0425 59.8592 29.2523 59.6494C29.4622 59.4396 29.58 59.155 29.58 58.8583C29.58 58.5616 29.4622 58.2771 29.2523 58.0673C29.0425 57.8575 28.758 57.7396 28.4613 57.7396Z" fill="#565A6A"/>
<path d="M52.264 57.7396H47.789C47.4923 57.7396 47.2078 57.8575 46.998 58.0673C46.7882 58.2771 46.6703 58.5616 46.6703 58.8583C46.6703 59.155 46.7882 59.4396 46.998 59.6494C47.2078 59.8592 47.4923 59.9771 47.789 59.9771H52.264C52.5607 59.9771 52.8453 59.8592 53.0551 59.6494C53.2649 59.4396 53.3827 59.155 53.3827 58.8583C53.3827 58.5616 53.2649 58.2771 53.0551 58.0673C52.8453 57.8575 52.5607 57.7396 52.264 57.7396Z" fill="#565A6A"/>
<path d="M44.6945 57.7396H31.5314C31.2347 57.7396 30.9501 57.8575 30.7403 58.0673C30.5305 58.2771 30.4127 58.5616 30.4127 58.8583C30.4127 59.155 30.5305 59.4396 30.7403 59.6494C30.9501 59.8592 31.2347 59.9771 31.5314 59.9771H44.6945C44.9912 59.9771 45.2757 59.8592 45.4855 59.6494C45.6953 59.4396 45.8132 59.155 45.8132 58.8583C45.8132 58.5616 45.6953 58.2771 45.4855 58.0673C45.2757 57.8575 44.9912 57.7396 44.6945 57.7396Z" fill="#565A6A"/>
<path d="M32.7462 54.4549C32.9051 54.4783 33.0673 54.4672 33.2215 54.4223C33.3758 54.3774 33.5186 54.2998 33.6402 54.1947C33.7618 54.0897 33.8593 53.9597 33.9262 53.8136C33.9931 53.6675 34.0277 53.5087 34.0277 53.3481C34.0277 53.1874 33.9931 53.0286 33.9262 52.8825C33.8593 52.7364 33.7618 52.6064 33.6402 52.5014C33.5186 52.3964 33.3758 52.3188 33.2215 52.2739C33.0673 52.229 32.9051 52.2179 32.7462 52.2412H25.2006C25.0417 52.2179 24.8795 52.229 24.7253 52.2739C24.571 52.3188 24.4282 52.3964 24.3066 52.5014C24.185 52.6064 24.0875 52.7364 24.0206 52.8825C23.9537 53.0286 23.9191 53.1874 23.9191 53.3481C23.9191 53.5087 23.9537 53.6675 24.0206 53.8136C24.0875 53.9597 24.185 54.0897 24.3066 54.1947C24.4282 54.2998 24.571 54.3774 24.7253 54.4223C24.8795 54.4672 25.0417 54.4783 25.2006 54.4549H32.7462Z" fill="#565A6A"/>
<path d="M36.1967 52.241C35.931 52.28 35.6883 52.4133 35.5128 52.6165C35.3372 52.8197 35.2407 53.0793 35.2407 53.3478C35.2407 53.6163 35.3372 53.8759 35.5128 54.0791C35.6883 54.2823 35.931 54.4156 36.1967 54.4546H47.027C47.2927 54.4156 47.5354 54.2823 47.7109 54.0791C47.8864 53.8759 47.983 53.6163 47.983 53.3478C47.983 53.0793 47.8864 52.8197 47.7109 52.6165C47.5354 52.4133 47.2927 52.28 47.027 52.241H36.1967Z" fill="#565A6A"/>
</svg>

