<svg width="67" height="95" viewBox="0 0 67 95" fill="none" xmlns="http://www.w3.org/2000/svg">
<path d="M66.2924 0.95215H65.9592C56.0352 0.261992 46.2064 -0.0711873 36.3776 0.0716039C31.6079 0.0261319 26.8398 0.264539 22.0985 0.78556C20.3136 1.09494 19.0999 2.92743 18.0051 4.11735L13.2454 9.06745C10.0802 12.3992 6.89122 15.6834 3.55942 18.8486C2.44089 19.9672 0.418013 21.0857 0.251423 22.7754C-0.0103605 25.3218 0.251423 27.9873 0.251423 30.5575C0.124498 40.1721 0.0610352 49.8423 0.0610352 59.5679C0.156229 70.6739 0.370416 81.7799 0.703596 92.8859C0.709675 93.1806 0.829471 93.4616 1.03793 93.6701C1.2464 93.8785 1.52738 93.9983 1.82213 94.0044C22.7382 95.377 43.725 95.2736 64.6265 93.695C64.9194 93.6833 65.1971 93.5617 65.4044 93.3544C65.6117 93.1471 65.7333 92.8694 65.745 92.5765C65.6498 62.4317 66.0306 32.2869 66.8873 2.14208C66.9281 2.02497 66.9451 1.90087 66.9371 1.77711C66.9292 1.65335 66.8965 1.53243 66.8411 1.42151C66.7856 1.31058 66.7085 1.2119 66.6142 1.13128C66.52 1.05067 66.4105 0.989758 66.2924 0.95215ZM2.96446 91.6959C2.42502 73.3076 2.2505 54.9034 2.44089 36.4834V29.796C2.44089 28.5822 2.44089 27.4161 2.44089 26.1072C2.29124 24.9762 2.37219 23.8266 2.67887 22.7278C3.08345 21.9663 4.53516 21.0381 5.17772 20.348L7.2006 18.5155C8.8427 16.921 10.461 15.2789 11.9603 13.7558C14.9827 10.5192 17.9813 7.35395 21.0037 4.23635C21.2809 3.86157 21.6386 3.5537 22.0504 3.33542C22.4623 3.11713 22.9179 2.99398 23.3836 2.97502L26.6916 2.73704C29.0715 2.59425 31.5941 2.49905 34.0691 2.42766C44.2311 2.11828 54.4169 2.42766 64.5789 2.99882C63.6904 32.4614 63.3096 61.9319 63.4365 91.4104C43.3091 92.8804 23.1049 92.9758 2.96446 91.6959Z" fill="#BBC2DC"/>
<path d="M24.1695 23.3706C24.4661 23.3706 24.7506 23.2528 24.9604 23.043C25.1702 22.8333 25.288 22.5488 25.288 22.2521C25.4472 16.438 25.2406 10.6197 24.6693 4.83159C24.6307 4.68908 24.5643 4.55561 24.474 4.43887C24.3836 4.32214 24.271 4.22445 24.1427 4.15144C24.0143 4.07843 23.8728 4.03155 23.7263 4.01349C23.5798 3.99544 23.4311 4.00657 23.2889 4.04624C23.0079 4.13456 22.7707 4.32599 22.625 4.58205C22.4793 4.83811 22.4359 5.13983 22.5036 5.42656C23.0551 10.6667 23.238 15.9392 23.051 21.205C17.5773 21.0384 12.1274 21.0146 6.62996 21.3954C5.22585 21.3954 5.20205 23.7752 6.62996 23.6324C12.4678 23.2359 18.3225 23.1485 24.1695 23.3706Z" fill="#BBC2DC"/>
<path d="M39.5431 13.0418C38.7102 13.8034 37.9248 14.5887 37.1632 15.4217C36.4017 16.2546 37.7582 18.0633 38.7339 17.0162C39.7097 15.969 40.5188 15.2551 41.3042 14.3507C42.812 15.5269 44.5334 16.3997 46.3733 16.921C48.3189 17.4122 50.3634 17.347 52.2737 16.7326C54.184 16.1183 55.8833 14.9796 57.1778 13.4464C57.3569 13.2423 57.4556 12.9801 57.4556 12.7086C57.4556 12.4371 57.3569 12.1749 57.1778 11.9709C55.7931 10.6897 54.1236 9.75617 52.3071 9.24721C50.4906 8.73825 48.5791 8.66848 46.7303 9.04366C44.7902 9.54738 42.9753 10.4467 41.3994 11.6853C40.3998 10.8285 39.4479 9.9242 38.5674 9.04366C38.4627 8.94052 38.3387 8.85902 38.2025 8.8038C38.0663 8.74859 37.9206 8.72074 37.7736 8.72184C37.6266 8.72295 37.4813 8.75298 37.346 8.81024C37.2106 8.8675 37.0879 8.95086 36.9848 9.05556C36.8816 9.16025 36.8001 9.28424 36.7449 9.42043C36.6897 9.55663 36.6618 9.70236 36.6629 9.84932C36.664 9.99628 36.6941 10.1416 36.7513 10.2769C36.8086 10.4123 36.892 10.535 36.9967 10.6382C37.6868 11.3521 38.5912 12.2089 39.5431 13.0418ZM46.6827 11.2331C48.0424 10.8751 49.4653 10.8283 50.8456 11.0961C52.2259 11.3639 53.528 11.9395 54.6552 12.78C53.5961 13.7863 52.2909 14.4964 50.8706 14.8389C49.4504 15.1815 47.9651 15.1444 46.5637 14.7315C45.3558 14.3198 44.2105 13.7432 43.1605 13.018C44.2197 12.2334 45.4019 11.6302 46.6589 11.2331H46.6827Z" fill="#BBC2DC"/>
<path d="M26.2389 32.5323C36.9959 32.5323 47.7766 32.3181 58.5097 31.7469C59.9376 31.7469 59.9614 29.3671 58.5097 29.5099C47.7766 30.081 37.091 30.3666 26.2389 30.2952C25.9423 30.2952 25.6578 30.4131 25.448 30.6228C25.2382 30.8326 25.1204 31.1171 25.1204 31.4138C25.1204 31.7104 25.2382 31.9949 25.448 32.2047C25.6578 32.4144 25.9423 32.5323 26.2389 32.5323Z" fill="#BBC2DC"/>
<path d="M42.1368 36.0554C40.7089 36.0554 40.7089 38.2211 42.1368 38.2687C46.7344 38.4236 51.3371 38.2805 55.9162 37.8403C56.209 37.8286 56.4868 37.7069 56.6941 37.4997C56.9013 37.2924 57.023 37.0147 57.0347 36.7218C57.0286 36.427 56.9088 36.146 56.7003 35.9376C56.4919 35.7291 56.2109 35.6093 55.9162 35.6032C51.3376 36.0513 46.7349 36.2024 42.1368 36.0554Z" fill="#BBC2DC"/>
<path d="M59.7474 48.8354H9.77051C9.47386 48.8354 9.18936 48.9532 8.97959 49.163C8.76983 49.3727 8.65198 49.6572 8.65198 49.9539C8.65198 50.2505 8.76983 50.535 8.97959 50.7448C9.18936 50.9546 9.47386 51.0724 9.77051 51.0724H59.7474C60.0441 51.0724 60.3286 50.9546 60.5384 50.7448C60.7481 50.535 60.866 50.2505 60.866 49.9539C60.866 49.6572 60.7481 49.3727 60.5384 49.163C60.3286 48.9532 60.0441 48.8354 59.7474 48.8354Z" fill="#BBC2DC"/>
<path d="M51.3942 57.6161C51.6908 57.6161 51.9753 57.4983 52.1851 57.2885C52.3948 57.0787 52.5127 56.7942 52.5127 56.4976C52.5127 56.2009 52.3948 55.9164 52.1851 55.7067C51.9753 55.4969 51.6908 55.3791 51.3942 55.3791C38.9079 55.4743 26.4216 55.3711 13.9353 55.0697C13.6386 55.0697 13.3541 55.1875 13.1443 55.3973C12.9346 55.6071 12.8167 55.8916 12.8167 56.1882C12.8167 56.4849 12.9346 56.7694 13.1443 56.9791C13.3541 57.1889 13.6386 57.3067 13.9353 57.3067C26.4057 57.5923 38.892 57.6955 51.3942 57.6161Z" fill="#BBC2DC"/>
<path d="M55.4875 63.6855C56.9154 63.6855 56.9154 61.3057 55.4875 61.4485C40.4309 62.1148 25.3585 62.218 10.2702 61.7579C8.84232 61.7579 8.84232 63.9473 10.2702 63.9949C25.3426 64.4709 40.4151 64.3678 55.4875 63.6855Z" fill="#BBC2DC"/>
<path d="M55.9158 70.3724C41.2321 70.3724 26.5484 69.8964 11.8409 69.9202C11.5484 69.9265 11.27 70.047 11.0653 70.2561C10.8607 70.4652 10.7461 70.7462 10.7462 71.0388C10.6034 75.1083 10.6034 79.1779 10.7462 83.2236C10.7461 83.5162 10.8607 83.7971 11.0653 84.0062C11.27 84.2153 11.5484 84.3359 11.8409 84.3421C26.5246 84.9609 41.2083 85.7225 55.8682 84.8895C55.9937 84.9165 56.1235 84.9165 56.249 84.8895H56.3918C56.5666 84.8003 56.7129 84.6638 56.8139 84.4955C56.9149 84.3271 56.9665 84.1338 56.9629 83.9376V71.4671C56.9522 71.1882 56.8398 70.9229 56.6469 70.7212C56.454 70.5195 56.1939 70.3955 55.9158 70.3724ZM13.0784 82.2717C13.0784 78.9399 13.0784 75.6081 13.0784 72.2763C27.0244 72.2763 40.9703 72.7285 54.9162 72.7285V82.8428C40.8751 83.3664 26.9292 82.7476 12.9832 82.1527L13.0784 82.2717Z" fill="#BBC2DC"/>
</svg>
