<svg width="99" height="83" viewBox="0 0 99 83" fill="none" xmlns="http://www.w3.org/2000/svg">
<path d="M66.0175 53.9835H65.7319V51.0321L66.3984 51.4129H66.5174L66.8268 51.6985C67.0419 51.8678 67.3117 51.9523 67.5849 51.9361C67.8582 51.9198 68.116 51.804 68.3096 51.6104C68.5031 51.4168 68.619 51.159 68.6352 50.8857C68.6515 50.6125 68.567 50.3427 68.3977 50.1276C67.6289 49.353 66.6804 48.7807 65.6367 48.4615V47.5808C65.6752 47.4406 65.6752 47.2926 65.6367 47.1524C65.5817 47.0189 65.5008 46.8975 65.3986 46.7954C65.2965 46.6933 65.1752 46.6124 65.0417 46.5574C64.9014 46.5189 64.7534 46.5189 64.6132 46.5574H64.3276C64.1404 46.6227 63.9698 46.7283 63.8278 46.8668C63.6234 47.0784 63.5047 47.3582 63.4945 47.6522V48.2473C63.0081 48.2628 62.5268 48.3511 62.0664 48.5091C61.4478 48.7086 60.8919 49.066 60.4536 49.546C60.0153 50.026 59.7098 50.6121 59.5673 51.2463C59.4428 51.9277 59.5233 52.6307 59.7987 53.2663C60.0742 53.9019 60.532 54.4414 61.1144 54.8166C61.8379 55.2816 62.6472 55.5972 63.4945 55.7448V58.5296L63.1375 58.363C62.7637 58.1691 62.4056 57.9462 62.0664 57.6966H61.8998L61.6618 57.4823L61.4476 57.2681C61.2985 57.0133 61.0546 56.8278 60.7693 56.752C60.4839 56.6762 60.1802 56.7163 59.9243 56.8635C59.7977 56.937 59.6871 57.0352 59.5992 57.1522C59.5112 57.2692 59.4475 57.4027 59.412 57.5447C59.3765 57.6867 59.3699 57.8344 59.3924 57.9791C59.415 58.1237 59.4664 58.2624 59.5435 58.3868C60.6056 59.6918 62.043 60.639 63.6612 61.1002V61.9095C63.6612 62.2062 63.779 62.4907 63.9888 62.7005C64.1986 62.9103 64.4831 63.0281 64.7798 63.0281C65.0765 63.0281 65.3611 62.9103 65.5709 62.7005C65.7807 62.4907 65.8985 62.2062 65.8985 61.9095V61.4096C66.5544 61.4045 67.1995 61.2418 67.7794 60.9353C68.3593 60.6287 68.8571 60.1874 69.2308 59.6483C69.5953 59.1295 69.8141 58.5224 69.8644 57.8903C69.9146 57.2582 69.7944 56.6241 69.5164 56.0542C69.1519 55.4449 68.6409 54.9362 68.0299 54.5746C67.4188 54.2129 66.7271 54.0098 66.0175 53.9835ZM63.4945 53.5313L62.8043 53.2932L62.3759 53.0076L62.2093 52.8648V52.722C62.202 52.619 62.202 52.5156 62.2093 52.4126V52.1984C62.1977 52.1434 62.1977 52.0867 62.2093 52.0317C62.2093 52.0317 62.2093 51.9127 62.2093 51.8651C62.2093 51.8651 62.2093 51.7461 62.2093 51.6747C62.2093 51.6033 62.3521 51.5081 62.2093 51.5557C62.0664 51.6033 62.5425 51.2701 62.3759 51.4129L62.7091 51.1987H62.8519L63.2565 51.0797H63.6374L63.4945 53.5313ZM67.3742 57.9584L67.2314 58.2202C67.1462 58.2934 67.0666 58.373 66.9934 58.4582H66.803L66.5888 58.5772C66.8506 58.4344 66.5888 58.5772 66.4698 58.5772H65.8985V56.1971L66.4698 56.3161L66.8506 56.4351H67.2076L67.3504 56.5541V56.6969C67.3398 56.7599 67.3398 56.8243 67.3504 56.8873C67.3504 56.8873 67.3504 57.2681 67.3504 57.1253C67.4032 57.3999 67.4112 57.6812 67.3742 57.9584Z" fill="#BBC2DC"/>
<path d="M43.7391 42.2969C42.1234 40.8898 40.2261 39.8435 38.1739 39.2279C36.1217 38.6122 33.9618 38.4413 31.8383 38.7266C29.3478 39.1871 27.0048 40.2402 25.0072 41.7971C24.2455 41.1544 23.5077 40.488 22.8412 39.8215C21.7939 38.8218 20.223 40.3928 21.2465 41.3924L23.2696 43.249C22.6746 43.7726 22.1034 44.3438 21.5559 44.9151C20.5563 45.9624 22.1272 47.5571 23.1268 46.5098C23.7457 45.8671 24.3645 45.2245 25.031 44.6533C27.2962 46.4658 29.9955 47.6555 32.8617 48.1045C34.8827 48.3371 36.93 48.0727 38.8256 47.3344C40.7212 46.596 42.4079 45.4061 43.7391 43.8678C43.9455 43.6585 44.0613 43.3763 44.0613 43.0823C44.0613 42.7884 43.9455 42.5062 43.7391 42.2969ZM32.7427 45.8671C30.5608 45.4789 28.5039 44.5729 26.7447 43.2252C28.2262 42.1564 29.9112 41.403 31.6955 41.0116C33.3525 40.7116 35.0538 40.7576 36.6922 41.1467C38.3307 41.5358 39.8709 42.2597 41.2162 43.2728C40.0732 44.2888 38.7247 45.0464 37.2624 45.4941C35.8002 45.9418 34.2586 46.0691 32.7427 45.8671Z" fill="#BBC2DC"/>
<path d="M98.0784 8.71267C97.9356 6.33249 96.1505 5.54704 94.1512 5.54704H86.0824C86.0824 4.28555 86.0824 3.02406 86.0824 1.76256C86.0793 1.61252 86.0467 1.46456 85.9864 1.32713C85.9261 1.1897 85.8393 1.06549 85.731 0.961604C85.6227 0.857718 85.495 0.776189 85.3551 0.721674C85.2153 0.667158 85.0661 0.640725 84.9161 0.643883C84.6213 0.649963 84.3403 0.769776 84.1318 0.978266C83.9233 1.18676 83.8035 1.46778 83.7974 1.76256C83.7974 3.02406 83.7974 4.28555 83.7974 5.54704H80.1319C80.1319 4.28555 80.1319 3.02406 80.1319 1.76256C80.1199 1.46564 79.9949 1.18453 79.7826 0.976621C79.5702 0.768716 79.2866 0.649702 78.9895 0.643883C78.6928 0.643883 78.4082 0.761744 78.1984 0.971537C77.9886 1.18133 77.8708 1.46587 77.8708 1.76256C77.8708 3.02406 77.8708 4.28555 77.8708 5.54704H36.7176C31.5526 5.54704 26.3638 5.54704 21.1751 5.54704L21.1275 1.76256C21.1278 1.60945 21.0967 1.4579 21.036 1.3173C20.9754 1.17671 20.8865 1.05005 20.775 0.945181C20.6634 0.840311 20.5315 0.75946 20.3874 0.707634C20.2434 0.655808 20.0902 0.634109 19.9374 0.643883C19.7896 0.640634 19.6427 0.667348 19.5055 0.722417C19.3683 0.777486 19.2437 0.859767 19.1391 0.964301C19.0346 1.06883 18.9523 1.19346 18.8972 1.33065C18.8422 1.46784 18.8155 1.61477 18.8187 1.76256V5.40423H15.177C15.177 4.21414 15.177 3.02406 15.177 1.76256C15.177 1.46587 15.0592 1.18133 14.8494 0.971537C14.6396 0.761744 14.355 0.643883 14.0584 0.643883C13.7617 0.643883 13.4771 0.761744 13.2673 0.971537C13.0575 1.18133 12.9397 1.46587 12.9397 1.76256C12.9397 3.00025 12.9397 4.14274 12.9397 5.45183C10.1549 5.45183 7.37007 5.45183 4.58527 5.45183C0.681787 5.64224 1.01501 9.06969 1.01501 11.9497V73.4772C1.01501 76.3572 -0.0322645 82.0458 4.20444 82.2838C7.06065 82.4504 9.96446 82.2838 12.8207 82.2838H94.9128C95.0701 82.3134 95.2315 82.3134 95.3888 82.2838C97.4358 81.8316 98.0784 80.1892 98.0784 78.2137V11.3309C98.0784 10.4502 98.126 9.56953 98.0784 8.71267ZM94.9128 80.1178H8.41735C6.77503 80.1178 3.49039 80.9033 3.25237 78.6183C3.16904 77.1041 3.16904 75.5864 3.25237 74.0722V13.711C3.17698 12.2202 3.18492 10.7263 3.27618 9.2363C3.49039 6.97514 6.89404 7.7844 8.51255 7.7844H13.0349V9.30771C13.0349 9.6044 13.1527 9.88894 13.3625 10.0987C13.5723 10.3085 13.8569 10.4264 14.1536 10.4264C14.4483 10.4203 14.7294 10.3005 14.9379 10.092C15.1464 9.88352 15.2662 9.6025 15.2722 9.30771V7.7844H18.9853V9.30771C18.9914 9.6025 19.1112 9.88352 19.3197 10.092C19.5282 10.3005 19.8092 10.4203 20.104 10.4264C20.3988 10.4203 20.6798 10.3005 20.8883 10.092C21.0968 9.88352 21.2166 9.6025 21.2227 9.30771V7.7844H77.9422V9.30771C77.9483 9.6025 78.0681 9.88352 78.2766 10.092C78.485 10.3005 78.7661 10.4203 79.0609 10.4264C79.2087 10.4296 79.3556 10.4029 79.4928 10.3479C79.63 10.2928 79.7546 10.2105 79.8591 10.106C79.9637 10.0014 80.0459 9.87682 80.101 9.73962C80.1561 9.60243 80.1828 9.45551 80.1795 9.30771C80.1795 8.80787 80.1795 8.28424 80.1795 7.7844H83.8926V9.30771C83.8926 9.6044 84.0105 9.88894 84.2203 10.0987C84.4301 10.3085 84.7146 10.4264 85.0113 10.4264C85.1571 10.4264 85.3014 10.3973 85.4359 10.3408C85.5703 10.2843 85.692 10.2015 85.794 10.0973C85.896 9.99314 85.9762 9.86961 86.0298 9.73401C86.0834 9.59842 86.1093 9.45348 86.1062 9.30771V7.7844H93.0325C93.9845 7.7844 94.6986 7.57018 95.4126 8.23663C96.1267 8.90308 95.8649 10.0694 95.8649 11.0928V76.9522C95.8411 77.7139 96.2457 79.9036 94.9128 80.0464V80.1178Z" fill="#BBC2DC"/>
<path d="M89.2242 24.636H9.44084C9.14822 24.6359 8.86723 24.7505 8.65811 24.9552C8.44899 25.1598 8.32838 25.4383 8.32216 25.7308V74.2387C8.32824 74.5335 8.44805 74.8146 8.65654 75.023C8.86503 75.2315 9.14605 75.3513 9.44084 75.3574H89.2242C89.3564 75.3607 89.4878 75.337 89.6106 75.2879C89.7333 75.2388 89.8448 75.1653 89.9383 75.0718C90.0318 74.9783 90.1053 74.8668 90.1544 74.7441C90.2035 74.6214 90.2271 74.4899 90.2239 74.3578V25.7308C90.2196 25.4578 90.1156 25.1957 89.9315 24.994C89.7473 24.7923 89.4958 24.665 89.2242 24.636ZM88.1055 73.0249H10.5595V26.8257H88.1055V73.0249Z" fill="#BBC2DC"/>
<path d="M13.4872 38.5125H22.3176C22.5576 38.4503 22.7701 38.3103 22.9219 38.1143C23.0736 37.9182 23.1559 37.6774 23.1559 37.4295C23.1559 37.1816 23.0736 36.9407 22.9219 36.7447C22.7701 36.5487 22.5576 36.4086 22.3176 36.3465H13.4872C13.2472 36.4086 13.0347 36.5487 12.8829 36.7447C12.7312 36.9407 12.6489 37.1816 12.6489 37.4295C12.6489 37.6774 12.7312 37.9182 12.8829 38.1143C13.0347 38.3103 13.2472 38.4503 13.4872 38.5125Z" fill="#BBC2DC"/>
<path d="M53.2598 36.3465H44.5483C44.2827 36.3856 44.04 36.5189 43.8645 36.7221C43.689 36.9253 43.5924 37.1848 43.5924 37.4533C43.5924 37.7218 43.689 37.9813 43.8645 38.1845C44.04 38.3877 44.2827 38.521 44.5483 38.5601H53.2598C53.5254 38.521 53.7681 38.3877 53.9436 38.1845C54.1191 37.9813 54.2157 37.7218 54.2157 37.4533C54.2157 37.1848 54.1191 36.9253 53.9436 36.7221C53.7681 36.5189 53.5254 36.3856 53.2598 36.3465Z" fill="#BBC2DC"/>
<path d="M68.85 36.3465H60.0909C59.8253 36.3856 59.5826 36.5189 59.4071 36.7221C59.2316 36.9253 59.135 37.1848 59.135 37.4533C59.135 37.7218 59.2316 37.9813 59.4071 38.1845C59.5826 38.3877 59.8253 38.521 60.0909 38.5601H68.85C69.1156 38.521 69.3583 38.3877 69.5338 38.1845C69.7093 37.9813 69.8059 37.7218 69.8059 37.4533C69.8059 37.1848 69.7093 36.9253 69.5338 36.7221C69.3583 36.5189 69.1156 36.3856 68.85 36.3465Z" fill="#BBC2DC"/>
<path d="M75.6096 36.3465C75.3439 36.3856 75.1012 36.5189 74.9257 36.7221C74.7502 36.9253 74.6536 37.1848 74.6536 37.4533C74.6536 37.7218 74.7502 37.9813 74.9257 38.1845C75.1012 38.3877 75.3439 38.521 75.6096 38.5601H84.3924C84.658 38.521 84.9008 38.3877 85.0763 38.1845C85.2518 37.9813 85.3483 37.7218 85.3483 37.4533C85.3483 37.1848 85.2518 36.9253 85.0763 36.7221C84.9008 36.5189 84.658 36.3856 84.3924 36.3465H75.6096Z" fill="#BBC2DC"/>
<path d="M22.3176 48.3664H13.4872C13.1905 48.3664 12.9059 48.4842 12.6961 48.694C12.4863 48.9038 12.3685 49.1883 12.3685 49.485C12.3685 49.7817 12.4863 50.0663 12.6961 50.2761C12.9059 50.4859 13.1905 50.6037 13.4872 50.6037H22.3176C22.6143 50.6037 22.8988 50.4859 23.1086 50.2761C23.3184 50.0663 23.4363 49.7817 23.4363 49.485C23.4363 49.1883 23.3184 48.9038 23.1086 48.694C22.8988 48.4842 22.6143 48.3664 22.3176 48.3664Z" fill="#BBC2DC"/>
<path d="M53.2598 48.3664H44.5484C44.2517 48.3664 43.9671 48.4842 43.7574 48.694C43.5476 48.9038 43.4297 49.1883 43.4297 49.485C43.4297 49.7817 43.5476 50.0663 43.7574 50.2761C43.9671 50.4859 44.2517 50.6037 44.5484 50.6037H53.2598C53.5565 50.6037 53.841 50.4859 54.0508 50.2761C54.2606 50.0663 54.3785 49.7817 54.3785 49.485C54.3785 49.1883 54.2606 48.9038 54.0508 48.694C53.841 48.4842 53.5565 48.3664 53.2598 48.3664Z" fill="#BBC2DC"/>
<path d="M84.3924 48.3664H75.6096C75.3129 48.3664 75.0284 48.4842 74.8186 48.694C74.6088 48.9038 74.4909 49.1883 74.4909 49.485C74.4909 49.7817 74.6088 50.0663 74.8186 50.2761C75.0284 50.4859 75.3129 50.6037 75.6096 50.6037H84.3924C84.6891 50.6037 84.9737 50.4859 85.1835 50.2761C85.3933 50.0663 85.5111 49.7817 85.5111 49.485C85.5111 49.1883 85.3933 48.9038 85.1835 48.694C84.9737 48.4842 84.6891 48.3664 84.3924 48.3664Z" fill="#BBC2DC"/>
<path d="M22.3176 60.4338H13.4872C13.1905 60.4338 12.9059 60.5517 12.6961 60.7615C12.4863 60.9713 12.3685 61.2558 12.3685 61.5525C12.3685 61.8492 12.4863 62.1338 12.6961 62.3435C12.9059 62.5533 13.1905 62.6712 13.4872 62.6712H22.3176C22.6143 62.6712 22.8988 62.5533 23.1086 62.3435C23.3184 62.1338 23.4363 61.8492 23.4363 61.5525C23.4363 61.2558 23.3184 60.9713 23.1086 60.7615C22.8988 60.5517 22.6143 60.4338 22.3176 60.4338Z" fill="#BBC2DC"/>
<path d="M37.7886 60.4338H29.0296C28.7329 60.4338 28.4484 60.5517 28.2386 60.7615C28.0288 60.9713 27.9109 61.2558 27.9109 61.5525C27.9109 61.8492 28.0288 62.1338 28.2386 62.3435C28.4484 62.5533 28.7329 62.6712 29.0296 62.6712H37.7886C38.0853 62.6712 38.3699 62.5533 38.5797 62.3435C38.7895 62.1338 38.9073 61.8492 38.9073 61.5525C38.9073 61.2558 38.7895 60.9713 38.5797 60.7615C38.3699 60.5517 38.0853 60.4338 37.7886 60.4338Z" fill="#BBC2DC"/>
<path d="M53.2598 60.4338H44.5484C44.2517 60.4338 43.9671 60.5517 43.7574 60.7615C43.5476 60.9713 43.4297 61.2558 43.4297 61.5525C43.4297 61.8492 43.5476 62.1338 43.7574 62.3435C43.9671 62.5533 44.2517 62.6712 44.5484 62.6712H53.2598C53.5565 62.6712 53.841 62.5533 54.0508 62.3435C54.2606 62.1338 54.3785 61.8492 54.3785 61.5525C54.3785 61.2558 54.2606 60.9713 54.0508 60.7615C53.841 60.5517 53.5565 60.4338 53.2598 60.4338Z" fill="#BBC2DC"/>
<path d="M84.3924 60.4338H75.6096C75.3129 60.4338 75.0284 60.5517 74.8186 60.7615C74.6088 60.9713 74.4909 61.2558 74.4909 61.5525C74.4909 61.8492 74.6088 62.1338 74.8186 62.3435C75.0284 62.5533 75.3129 62.6712 75.6096 62.6712H84.3924C84.6891 62.6712 84.9737 62.5533 85.1835 62.3435C85.3933 62.1338 85.5111 61.8492 85.5111 61.5525C85.5111 61.2558 85.3933 60.9713 85.1835 60.7615C84.9737 60.5517 84.6891 60.4338 84.3924 60.4338Z" fill="#BBC2DC"/>
<path d="M24.9358 35.68C25.2306 35.6739 25.5116 35.5541 25.7201 35.3456C25.9286 35.1371 26.0484 34.8561 26.0545 34.5613V28.9441C26.0545 28.6474 25.9366 28.3629 25.7268 28.1531C25.517 27.9433 25.2325 27.8255 24.9358 27.8255C24.641 27.8315 24.36 27.9513 24.1515 28.1598C23.943 28.3683 23.8232 28.6493 23.8171 28.9441V34.5613C23.8232 34.8561 23.943 35.1371 24.1515 35.3456C24.36 35.5541 24.641 35.6739 24.9358 35.68Z" fill="#BBC2DC"/>
<path d="M24.9358 51.5557C24.641 51.5618 24.36 51.6816 24.1515 51.8901C23.943 52.0986 23.8232 52.3796 23.8171 52.6744V58.2916C23.8232 58.5864 23.943 58.8674 24.1515 59.0759C24.36 59.2844 24.641 59.4042 24.9358 59.4103C25.2306 59.4042 25.5116 59.2844 25.7201 59.0759C25.9286 58.8674 26.0484 58.5864 26.0545 58.2916V52.6744C26.0545 52.3777 25.9366 52.0932 25.7268 51.8834C25.517 51.6736 25.2325 51.5557 24.9358 51.5557Z" fill="#BBC2DC"/>
<path d="M24.9358 63.4091C24.6428 63.4208 24.3651 63.5424 24.1578 63.7497C23.9505 63.957 23.8288 64.2348 23.8171 64.5277V70.1449C23.8232 70.4397 23.943 70.7207 24.1515 70.9292C24.36 71.1377 24.641 71.2575 24.9358 71.2636C25.2325 71.2636 25.517 71.1458 25.7268 70.936C25.9366 70.7262 26.0545 70.4416 26.0545 70.1449V64.5277C26.0484 64.2329 25.9286 63.9519 25.7201 63.7434C25.5116 63.5349 25.2306 63.4151 24.9358 63.4091Z" fill="#BBC2DC"/>
<path d="M40.6925 35.68C40.9873 35.6739 41.2683 35.5541 41.4768 35.3456C41.6853 35.1371 41.8051 34.8561 41.8112 34.5613V28.9441C41.8112 28.6474 41.6933 28.3629 41.4835 28.1531C41.2737 27.9433 40.9892 27.8255 40.6925 27.8255C40.3977 27.8315 40.1167 27.9513 39.9082 28.1598C39.6997 28.3683 39.5799 28.6493 39.5738 28.9441V34.5613C39.5799 34.8561 39.6997 35.1371 39.9082 35.3456C40.1167 35.5541 40.3977 35.6739 40.6925 35.68Z" fill="#BBC2DC"/>
<path d="M40.6925 51.5557C40.3977 51.5618 40.1167 51.6816 39.9082 51.8901C39.6997 52.0986 39.5799 52.3796 39.5738 52.6744V58.2916C39.5799 58.5864 39.6997 58.8674 39.9082 59.0759C40.1167 59.2844 40.3977 59.4042 40.6925 59.4103C40.9873 59.4042 41.2683 59.2844 41.4768 59.0759C41.6853 58.8674 41.8051 58.5864 41.8112 58.2916V52.6744C41.8112 52.3777 41.6933 52.0932 41.4835 51.8834C41.2737 51.6736 40.9892 51.5557 40.6925 51.5557Z" fill="#BBC2DC"/>
<path d="M40.6925 63.4091C40.3996 63.4208 40.1218 63.5424 39.9145 63.7497C39.7072 63.957 39.5856 64.2348 39.5738 64.5277V70.1449C39.5799 70.4397 39.6997 70.7207 39.9082 70.9292C40.1167 71.1377 40.3977 71.2575 40.6925 71.2636C40.9892 71.2636 41.2737 71.1458 41.4835 70.936C41.6933 70.7262 41.8112 70.4416 41.8112 70.1449V64.5277C41.8051 64.2329 41.6853 63.9519 41.4768 63.7434C41.2683 63.5349 40.9873 63.4151 40.6925 63.4091Z" fill="#BBC2DC"/>
<path d="M56.4492 27.8255C56.1545 27.8315 55.8734 27.9513 55.6649 28.1598C55.4565 28.3683 55.3366 28.6493 55.3306 28.9441V34.5613C55.3366 34.8561 55.4565 35.1371 55.6649 35.3456C55.8734 35.5541 56.1545 35.6739 56.4492 35.68C56.744 35.6739 57.025 35.5541 57.2335 35.3456C57.442 35.1371 57.5618 34.8561 57.5679 34.5613V28.9441C57.5679 28.6474 57.4501 28.3629 57.2403 28.1531C57.0305 27.9433 56.7459 27.8255 56.4492 27.8255Z" fill="#BBC2DC"/>
<path d="M56.4492 39.6787C56.1563 39.6904 55.8785 39.812 55.6712 40.0193C55.4639 40.2266 55.3423 40.5044 55.3306 40.7973V46.4146C55.3366 46.7093 55.4565 46.9904 55.6649 47.1989C55.8734 47.4073 56.1545 47.5272 56.4492 47.5332C56.7459 47.5332 57.0305 47.4154 57.2403 47.2056C57.4501 46.9958 57.5679 46.7112 57.5679 46.4146V40.7973C57.5618 40.5026 57.442 40.2215 57.2335 40.013C57.025 39.8046 56.744 39.6847 56.4492 39.6787Z" fill="#BBC2DC"/>
<path d="M56.4492 63.4091C56.1563 63.4208 55.8785 63.5424 55.6712 63.7497C55.4639 63.957 55.3423 64.2348 55.3306 64.5277V70.1449C55.3366 70.4397 55.4565 70.7207 55.6649 70.9292C55.8734 71.1377 56.1545 71.2575 56.4492 71.2636C56.7459 71.2636 57.0305 71.1458 57.2403 70.936C57.4501 70.7262 57.5679 70.4416 57.5679 70.1449V64.5277C57.5618 64.2329 57.442 63.9519 57.2335 63.7434C57.025 63.5349 56.744 63.4151 56.4492 63.4091Z" fill="#BBC2DC"/>
<path d="M72.3011 27.8255C72.0063 27.8315 71.7253 27.9513 71.5168 28.1598C71.3083 28.3683 71.1885 28.6493 71.1824 28.9441V34.5613C71.1885 34.8561 71.3083 35.1371 71.5168 35.3456C71.7253 35.5541 72.0063 35.6739 72.3011 35.68C72.5959 35.6739 72.8769 35.5541 73.0854 35.3456C73.2939 35.1371 73.4137 34.8561 73.4198 34.5613V28.9441C73.4198 28.6474 73.3019 28.3629 73.0921 28.1531C72.8824 27.9433 72.5978 27.8255 72.3011 27.8255Z" fill="#BBC2DC"/>
<path d="M72.3011 39.6787C72.0082 39.6904 71.7304 39.812 71.5231 40.0193C71.3158 40.2266 71.1942 40.5044 71.1824 40.7973V46.4146C71.1885 46.7093 71.3083 46.9904 71.5168 47.1989C71.7253 47.4073 72.0063 47.5272 72.3011 47.5332C72.5978 47.5332 72.8824 47.4154 73.0921 47.2056C73.3019 46.9958 73.4198 46.7112 73.4198 46.4146V40.7973C73.4137 40.5026 73.2939 40.2215 73.0854 40.013C72.8769 39.8046 72.5959 39.6847 72.3011 39.6787Z" fill="#BBC2DC"/>
<path d="M72.3011 63.4091C72.0082 63.4208 71.7304 63.5424 71.5231 63.7497C71.3158 63.957 71.1942 64.2348 71.1824 64.5277V70.1449C71.1885 70.4397 71.3083 70.7207 71.5168 70.9292C71.7253 71.1377 72.0063 71.2575 72.3011 71.2636C72.5978 71.2636 72.8824 71.1458 73.0921 70.936C73.3019 70.7262 73.4198 70.4416 73.4198 70.1449V64.5277C73.4137 64.2329 73.2939 63.9519 73.0854 63.7434C72.8769 63.5349 72.5959 63.4151 72.3011 63.4091Z" fill="#BBC2DC"/>
<path d="M15.3436 20.8754H42.6918C42.9885 20.8754 43.273 20.7575 43.4828 20.5477C43.6926 20.3379 43.8105 20.0534 43.8105 19.7567C43.8105 19.46 43.6926 19.1755 43.4828 18.9657C43.273 18.7559 42.9885 18.638 42.6918 18.638H15.3436C15.0469 18.638 14.7624 18.7559 14.5526 18.9657C14.3428 19.1755 14.2249 19.46 14.2249 19.7567C14.2249 20.0534 14.3428 20.3379 14.5526 20.5477C14.7624 20.7575 15.0469 20.8754 15.3436 20.8754Z" fill="#BBC2DC"/>
<path d="M46.8333 20.8754H79.9891C80.2857 20.8754 80.5703 20.7575 80.7801 20.5477C80.9899 20.3379 81.1077 20.0534 81.1077 19.7567C81.1077 19.46 80.9899 19.1755 80.7801 18.9657C80.5703 18.7559 80.2857 18.638 79.9891 18.638H46.8333C46.5366 18.638 46.252 18.7559 46.0422 18.9657C45.8324 19.1755 45.7146 19.46 45.7146 19.7567C45.7146 20.0534 45.8324 20.3379 46.0422 20.5477C46.252 20.7575 46.5366 20.8754 46.8333 20.8754Z" fill="#BBC2DC"/>
</svg>
